<svg width="85" height="29" viewBox="0 0 85 29" fill="none" xmlns="http://www.w3.org/2000/svg">
<path d="M84.434 0.567871H0.925781V28.7417H84.434V0.567871Z" fill="#CB2B1E"/>
<path d="M10.3371 6.73096H16.953C19.5994 6.73096 21.3637 8.19835 21.3637 10.2527C21.3637 12.0136 20.1875 13.6277 18.2762 14.5081C19.5994 15.0951 20.4815 16.4157 20.4815 17.8831C20.4815 20.9646 17.5411 22.8722 14.1596 22.8722H6.95557L10.3371 6.73096ZM13.8656 19.3505C15.3358 19.3505 16.512 18.4701 16.512 17.1494C16.512 16.4157 15.9239 16.1222 14.7477 16.1222H12.3954L11.6603 19.3505H13.8656ZM14.6007 13.0407C15.9239 13.0407 17.1 12.1603 17.1 10.9864C17.1 10.3994 16.512 9.95921 15.4828 9.95921H13.5715L12.9834 12.894H14.6007V13.0407Z" fill="white"/>
<path d="M42.9751 17.5889C42.9751 13.6269 46.9447 10.3987 50.9143 10.3987C53.1196 10.3987 54.5898 11.4259 55.4719 12.5998L52.5315 14.5074C52.0904 13.9204 51.3553 13.6269 50.6202 13.6269C48.5619 13.6269 46.6506 15.5345 46.6506 17.4421C46.6506 18.6161 47.5328 19.6432 48.8559 19.6432C49.8851 19.6432 50.9143 19.0563 51.6494 18.4693L54.0017 20.8171C52.5315 22.1378 50.7672 22.8715 48.7089 22.8715C45.3274 23.0182 42.9751 20.5237 42.9751 17.5889Z" fill="white"/>
<path d="M65.7632 17.5889C65.7632 13.6269 69.7328 10.3987 73.7023 10.3987C75.9077 10.3987 77.3779 11.4259 78.26 12.5998L75.3196 14.5074C74.8785 13.9204 74.1434 13.6269 73.4083 13.6269C71.35 13.6269 69.4387 15.5345 69.4387 17.4421C69.4387 18.6161 70.3208 19.6432 71.644 19.6432C72.6732 19.6432 73.7023 19.0563 74.4374 18.4693L76.7898 20.8171C75.3196 22.1378 73.5553 22.8715 71.497 22.8715C68.2625 23.0182 65.7632 20.5237 65.7632 17.5889Z" fill="white"/>
<path d="M27.0977 19.6442C26.5096 19.6442 26.0685 19.4975 25.6274 19.0573L30.9202 16.7094L34.7428 14.9486C34.5957 14.0681 34.4487 13.3344 34.0077 12.7475C32.9785 11.2801 31.2143 10.2529 29.156 10.2529C25.1864 10.2529 21.2168 13.4812 21.2168 17.4431C21.2168 17.7366 21.2168 18.0301 21.3638 18.3236C21.5108 19.0573 21.8049 19.9377 22.2459 20.5247C23.2751 21.8453 24.8923 22.7257 26.9506 22.7257C28.8619 22.7257 30.7732 21.992 32.2434 20.6714L29.8911 18.1768C29.0089 19.204 27.9798 19.6442 27.0977 19.6442ZM28.7149 13.6279C29.45 13.6279 30.0381 13.9214 30.4791 14.3616L24.8923 16.8562C25.1864 15.2421 26.9506 13.6279 28.7149 13.6279Z" fill="white"/>
<path d="M42.2411 5.99658L37.9775 7.90419L37.3894 10.6922H35.7722L35.1841 13.7737H36.8013C35.7722 18.6161 35.6251 19.2031 35.6251 19.79C35.6251 21.6976 36.9483 23.0183 39.0066 23.0183C40.0358 23.0183 41.212 22.5781 42.0941 21.9911L41.653 19.2031C41.359 19.4966 40.7709 19.79 40.3298 19.79C39.8888 19.79 39.7417 19.6433 39.7417 19.0563C39.7417 18.7629 39.7417 18.4694 40.7709 13.9205H43.2703L43.8583 10.839H41.359L42.2411 5.99658Z" fill="white"/>
<path d="M57.8258 6.73096H61.5014L58.1199 22.7255H54.4443L57.8258 6.73096Z" fill="white"/>
<path d="M62.2352 10.6925H66.0578L63.5584 22.7251H59.7358L62.2352 10.6925ZM62.8233 7.46427C62.8233 6.14362 63.9995 5.26318 65.1756 5.26318C66.2048 5.26318 67.0869 6.14362 67.0869 7.17079C67.0869 8.3447 65.9107 9.37187 64.7346 9.37187C63.7054 9.37187 62.8233 8.63818 62.8233 7.46427Z" fill="white"/>
</svg>
