<svg width="133" height="21" viewBox="0 0 133 21" fill="none" xmlns="http://www.w3.org/2000/svg">
<path d="M57.8119 4.67352V0.587891H45.978V4.67352V8.6838V12.7752V16.7855V20.8711H50.0926H57.8119V16.7855H50.0926V12.7752H56.224V8.6838H50.0926V4.67352H57.8119Z" fill="#F8F8F8"/>
<path d="M42.7796 6.46442C42.7732 4.23789 41.5104 2.20551 39.5169 1.21395V0.582275H30.9399V20.8655H39.5169V20.2338C41.5104 19.2423 42.7732 17.2099 42.7796 14.9834V6.46442ZM35.0603 16.8089V4.6679H36.8684C37.8617 4.6679 38.6673 5.47112 38.6708 6.46442V14.9834C38.6835 15.9784 37.8872 16.7961 36.8916 16.8089C36.8818 16.8089 36.8719 16.8089 36.8626 16.8089H35.0603Z" fill="#F8F8F8"/>
<path d="M23.6313 0.57666V4.16969L20.0151 0.57666H15.9062V20.8599H20.0151V6.35449L23.6313 9.94752V20.8599H27.7401V0.57666H23.6313Z" fill="#F8F8F8"/>
<path d="M72.8485 12.3594H68.7397V20.8783H72.8485V12.3594Z" fill="#F8F8F8"/>
<path d="M72.8509 6.47589C72.8445 4.24937 71.5818 2.21699 69.5882 1.22543V0.59375H61.0171V20.877H65.1259V12.358H68.7421V12.0741C71.1836 11.3004 72.8445 9.03679 72.8509 6.47589ZM65.1259 8.27241V4.67937H66.934C67.9261 4.67937 68.7305 5.48317 68.7305 6.47589C68.7305 7.46861 67.9267 8.27241 66.9346 8.27241H65.1259Z" fill="#F8F8F8"/>
<path d="M87.889 6.4815C87.8826 4.25498 86.6198 2.2226 84.6263 1.23104V0.599365H76.0552V20.8826H84.6263V20.2509C86.6198 19.2594 87.8826 17.227 87.889 15.0005V6.4815ZM80.164 16.826V4.68499H82.0011C82.9932 4.68151 83.7999 5.48357 83.8034 6.47571C83.8034 6.47745 83.8034 6.47977 83.8034 6.4815V15.0005C83.8196 15.9926 83.028 16.8097 82.0358 16.826C82.0242 16.826 82.0127 16.826 82.0011 16.826H80.164Z" fill="#F8F8F8"/>
<path d="M102.927 6.48688C102.921 4.25862 101.656 2.22508 99.6585 1.23641V0.604736H94.3559V1.23641C92.3589 2.22508 91.0932 4.25862 91.0874 6.48688V15.0058C91.0932 17.2341 92.3589 19.2676 94.3559 20.2563V20.888H99.6585V20.2563C101.656 19.2676 102.921 17.2341 102.927 15.0058V6.48688ZM95.202 6.48688C95.2588 5.4901 96.1124 4.72745 97.1098 4.78424C98.0278 4.8364 98.7608 5.56891 98.8124 6.48688V15.0058C98.7556 16.0026 97.902 16.7653 96.9046 16.7085C95.9867 16.6563 95.2536 15.9238 95.202 15.0058V6.48688Z" fill="#F8F8F8"/>
<path d="M112.044 10.7525V14.8381H113.875V15.0119C113.875 16.0105 113.065 16.82 112.067 16.82C111.068 16.82 110.259 16.0105 110.259 15.0119V6.49298C110.259 5.49446 111.068 4.68487 112.067 4.68487C113.065 4.68487 113.875 5.49446 113.875 6.49298V8.2895H117.984V6.49298C117.98 4.2653 116.716 2.23176 114.721 1.24252V0.61084H109.413V1.24252C107.419 2.23408 106.156 4.26646 106.15 6.49298V15.0119C106.156 17.2385 107.419 19.2708 109.413 20.2624V20.8941H112.067L113.875 18.8484V20.8941H117.984V10.7525H112.044Z" fill="#F8F8F8"/>
<path d="M133 8.29487V6.49835C132.994 4.27183 131.731 2.23945 129.738 1.24789V0.616211H124.429V1.24789C122.436 2.23945 121.173 4.27183 121.167 6.49835V8.29487H121.335C121.828 10.2907 123.319 11.8891 125.275 12.5196V12.7862H127.083C128.077 12.7827 128.885 13.5836 128.892 14.5769V14.9999C128.892 15.9984 128.082 16.808 127.083 16.808C126.085 16.808 125.275 15.9984 125.275 14.9999V13.2034H121.167V14.9999C121.173 17.2264 122.436 19.2588 124.429 20.2504V20.8995H129.738V20.2678C131.731 19.2762 132.994 17.2438 133 15.0173V14.5943V13.2208H132.832C132.339 11.2249 130.848 9.62661 128.892 8.99609V8.72951H127.083C126.091 8.73588 125.282 7.93672 125.275 6.94458C125.275 6.94284 125.275 6.94053 125.275 6.93879V6.51574C125.275 5.51722 126.085 4.70763 127.083 4.70763C128.082 4.70763 128.892 5.51722 128.892 6.51574V8.31225L133 8.29487Z" fill="#F8F8F8"/>
<path d="M8.59318 0.570801V14.9719C8.53639 15.9687 7.68275 16.7313 6.6854 16.6745C5.76744 16.623 5.03492 15.8899 4.98276 14.9719V0.570801H0.868164V14.9719C0.874539 17.1984 2.13732 19.2308 4.13087 20.2224V20.854H9.43928V20.2224C11.4346 19.2331 12.6985 17.1996 12.702 14.9719V0.570801H8.59318Z" fill="#F8F8F8"/>
</svg>
