<svg width="147" height="60" viewBox="0 0 147 60" fill="none" xmlns="http://www.w3.org/2000/svg">
<path d="M145.98 9.87085L5.94238 0L0.999632 49.4989L141.037 59.3697L145.98 9.87085Z" fill="#CB2B1E"/>
<path d="M20.7122 11.5911L31.4563 12.2414C35.754 12.5015 38.3273 15.2089 37.9188 18.7564C37.5687 21.7971 35.3376 24.4688 32.0587 25.8013C34.0908 26.9449 35.2608 29.3122 34.969 31.8461C34.3562 37.1674 29.2017 40.1725 23.7103 39.8401L12.0111 39.1319L20.7122 11.5911ZM23.933 33.7297C26.3206 33.8742 28.4058 32.4695 28.6684 30.189C28.8143 28.922 27.9176 28.3574 26.0075 28.2418L22.1874 28.0106L20.3516 33.513L23.933 33.7297ZM26.3815 22.9061C28.5303 23.0361 30.6155 21.6314 30.8489 19.6042C30.9656 18.5907 30.0981 17.7727 28.4268 17.6715L25.3229 17.4837L23.7843 22.4937L26.4107 22.6527L26.3815 22.9061Z" fill="white"/>
<path d="M73.8837 34.9895C74.6745 28.1304 81.7902 22.9325 88.2615 23.3237C91.8567 23.541 94.0485 25.4642 95.2522 27.5835L90.0779 30.5963C89.476 29.5367 88.3362 28.9561 87.1378 28.8837C83.7823 28.6809 80.2857 31.7951 79.905 35.0977C79.6706 37.13 80.9037 38.9953 83.0608 39.1257C84.7386 39.2271 86.5335 38.3123 87.849 37.3686L91.2153 41.6651C88.5549 43.8066 85.5323 44.903 82.1768 44.7001C76.6349 44.621 73.2979 40.0704 73.8837 34.9895Z" fill="white"/>
<path d="M112.359 38.2095C113.15 31.3503 120.266 26.1525 126.737 26.5437C130.332 26.761 132.524 28.6841 133.728 30.8034L128.553 33.8163C127.952 32.7566 126.812 32.1761 125.613 32.1036C122.258 31.9008 118.761 35.0151 118.381 38.3176C118.146 40.35 119.379 42.2152 121.536 42.3456C123.214 42.447 125.009 41.5323 126.325 40.5885L129.691 44.885C127.03 47.0265 124.008 48.1229 120.652 47.9201C115.35 47.8554 111.774 43.2904 112.359 38.2095Z" fill="white"/>
<path d="M46.3376 36.0912C45.3766 36.0331 44.6851 35.7351 44.0524 34.9279L53.1718 31.3779L59.7711 28.7009C59.707 27.1591 59.6135 25.8719 59.0102 24.8103C57.6219 22.1633 54.9442 20.2074 51.5804 20.0042C45.0932 19.6122 37.96 24.8201 37.1673 31.6926C37.1086 32.2016 37.0499 32.7107 37.2314 33.2343C37.3249 34.5215 37.6293 36.0777 38.2326 37.1394C39.6503 39.5318 42.1171 41.2187 45.4808 41.4219C48.6043 41.6106 51.8746 40.5266 54.5415 38.381L51.1963 33.8216C49.5492 35.5163 47.7793 36.1783 46.3376 36.0912ZM50.1844 25.8149C51.3857 25.8875 52.2881 26.4546 52.9208 27.2618L43.2915 31.0373C44.095 28.2664 47.3011 25.6407 50.1844 25.8149Z" fill="white"/>
<path d="M74.1389 14.6955L67.0124 17.5432L65.539 22.2556L62.9764 22.0979L61.446 27.3123L64.0086 27.47C61.4373 35.6538 61.0903 36.6436 60.9763 37.6478C60.6058 40.9112 62.446 43.2996 65.7075 43.5003C67.3383 43.6006 69.2875 42.9622 70.7993 42.0441L70.642 37.2314C70.119 37.7048 69.1301 38.1495 68.4312 38.1065C67.7323 38.0635 67.5279 37.7981 67.6419 36.794C67.6989 36.2919 67.7559 35.7898 70.2702 28.1081L74.2306 28.3518L75.761 23.1374L71.8006 22.8937L74.1389 14.6955Z" fill="white"/>
<path d="M100.611 18.2982L106.388 18.6561L97.9901 45.6426L92.2128 45.2846L100.611 18.2982Z" fill="white"/>
<path d="M107.38 25.7494L113.371 26.1215L107.14 46.4171L101.149 46.045L107.38 25.7494ZM108.922 20.2962C109.176 18.0419 111.189 16.6535 113.032 16.768C114.645 16.8682 115.859 18.457 115.661 20.2103C115.436 22.2141 113.395 23.8529 111.551 23.7384C109.938 23.6382 108.696 22.3 108.922 20.2962Z" fill="white"/>
</svg>
