<svg width="185" height="152" viewBox="0 0 185 152" fill="none" xmlns="http://www.w3.org/2000/svg">
<path fill-rule="evenodd" clip-rule="evenodd" d="M73.2076 0.38515C73.0448 0.581943 72.8314 0.693139 72.7333 0.632368C72.2407 0.326706 70.4493 0.312743 69.8954 0.610129C69.47 0.838729 69.0248 0.873898 68.4928 0.720808C67.5127 0.438679 61.8882 0.688226 61.4755 1.0319C61.2701 1.20309 61.1367 1.1912 61.0717 0.995698C60.9597 0.657712 56.7388 1.17827 56.7388 1.52996C56.7388 1.64271 56.4984 1.67167 56.2047 1.59461C55.5696 1.42781 53.7043 1.97604 53.0664 2.51651C52.7204 2.80976 52.4746 2.83562 52.018 2.62693C51.3265 2.31067 49.9708 2.49582 50.2042 2.87467C50.3011 3.03241 50.1514 3.06422 49.8165 2.95768C49.3898 2.82165 49.3043 2.87208 49.4251 3.1886C49.5166 3.4278 49.4432 3.59331 49.2456 3.59331C49.0467 3.59331 49.1137 3.74717 49.4112 3.97293C49.8843 4.33212 49.866 4.35307 49.074 4.36082C48.6136 4.36548 48.2367 4.26721 48.2367 4.14283C48.2367 3.78596 46.8846 3.87932 46.5027 4.2623C46.2518 4.51417 45.9805 4.54055 45.5059 4.35927C44.6001 4.01353 44.3641 4.0474 44.5364 4.4984C44.6346 4.75467 44.5274 4.88629 44.2216 4.88629C43.7877 4.88629 43.7893 4.90905 44.2466 5.24471C44.6256 5.52296 44.8814 5.53848 45.3908 5.31453C45.7515 5.15601 46.1158 4.92948 46.2003 4.81156C46.2848 4.69338 46.5344 4.87362 46.7552 5.21187C47.1298 5.78595 47.1206 5.85009 46.6135 6.16764C46.2229 6.41254 46.0426 6.42572 45.9725 6.21445C45.8602 5.87595 45.145 5.8113 45.145 6.13946C45.145 6.25996 45.3274 6.72544 45.5502 7.17385C45.9004 7.87826 46.0915 7.98946 46.9521 7.98946C47.5001 7.98946 48.0274 7.86146 48.1238 7.70475C48.2245 7.54131 48.6203 7.48468 49.0536 7.57157C49.4687 7.65484 49.75 7.62898 49.6792 7.5139C49.4445 7.13247 50.6783 7.33547 50.998 7.73086C51.1707 7.94421 51.3157 7.99696 51.3201 7.84827C51.3252 7.68096 52.236 7.57441 53.7115 7.56898C58.1022 7.55243 60.3449 7.36676 60.3454 7.01972C60.3457 6.63286 61.038 6.58321 61.1637 6.96128C61.2933 7.3515 63.1949 7.60751 63.407 7.26332C63.5309 7.06187 64.083 7.0492 65.2849 7.22013C67.5795 7.54623 70.6098 7.43555 70.769 7.01972C70.9422 6.56769 71.4242 6.61528 71.4242 7.08437C71.4242 7.29771 71.5953 7.47227 71.8042 7.47227C72.0686 7.47227 72.1572 7.25582 72.0951 6.76112C72.0462 6.36987 72.0575 6.19557 72.1204 6.37323C72.1835 6.55114 72.4004 6.69647 72.6024 6.69647C72.8046 6.69647 72.9701 6.87103 72.9701 7.08437C72.9701 7.36443 73.2563 7.47227 74.0006 7.47227C74.7449 7.47227 75.0312 7.36443 75.0312 7.08437C75.0312 6.5951 75.2625 6.59252 75.7943 7.07532C76.0473 7.30547 76.8522 7.47977 77.8412 7.51907C79.3435 7.57855 79.5195 7.52709 80.0891 6.86224L80.7072 6.14101L80.1597 5.36961C79.8588 4.94525 79.6702 4.54003 79.7408 4.46918C79.9217 4.28764 81.2145 5.5302 81.2145 5.88577C81.2145 6.04714 81.3305 6.17928 81.4722 6.17928C82.0011 6.17928 81.7058 6.6926 81.0875 6.84853C79.8547 7.15885 80.7456 7.47227 82.8613 7.47227C84.0339 7.47227 85.0729 7.55217 85.1703 7.64992C85.4076 7.88835 86.3673 7.94912 86.3673 7.72595C86.3673 7.48235 88.996 7.55993 89.3964 7.81568C89.5968 7.94343 89.7792 7.86792 89.8748 7.61786C90.074 7.09704 90.7472 7.09135 90.7472 7.61062C90.7472 7.92895 90.8505 7.95222 91.2679 7.72802C91.5541 7.57415 91.9019 7.51881 92.0408 7.60493C92.1794 7.69104 92.293 7.52838 92.293 7.24341C92.293 6.77716 92.3762 6.80224 93.1303 7.4958C93.776 8.08954 93.9867 8.17487 94.0509 7.86895C94.1555 7.37193 94.29 7.37115 94.7818 7.86482C95.2654 8.34995 97.1874 8.28995 96.9988 7.79551C96.8277 7.34736 97.4007 7.39003 97.8691 7.86016C98.0964 8.08825 98.7258 8.24806 99.3964 8.24806C100.068 8.24806 100.537 8.36727 100.537 8.5382C100.537 8.75181 100.629 8.75232 100.883 8.54053C101.073 8.38227 101.276 8.29693 101.334 8.35098C101.563 8.56613 103.899 8.80896 106.565 8.89481C108.436 8.95532 109.438 9.09238 109.57 9.30624C109.792 9.66802 110.753 9.71534 112.221 9.43735C112.977 9.29408 113.166 9.32538 113.016 9.56846C112.88 9.7893 112.949 9.83765 113.24 9.72568C113.472 9.63647 113.726 9.66983 113.806 9.79964C113.886 9.92946 114.116 9.97213 114.317 9.8948C114.518 9.81723 114.831 9.84593 115.013 9.95842C115.506 10.2646 116.253 10.2674 116.253 9.96333C116.253 9.80352 116.378 9.82085 116.563 10.0065C116.733 10.1772 117.182 10.3168 117.562 10.3168C117.941 10.3168 118.688 10.4999 119.222 10.7236C119.755 10.9473 120.457 11.0634 120.781 10.9817C121.105 10.9 121.695 10.9571 122.092 11.1084C122.596 11.3008 122.84 11.3016 122.903 11.1107C122.966 10.9212 123.146 10.9201 123.493 11.1066C123.768 11.2543 124.107 11.3047 124.246 11.2186C124.384 11.1325 124.498 11.2436 124.498 11.4653C124.498 11.7228 124.73 11.8684 125.142 11.8684C125.496 11.8684 125.786 11.7438 125.786 11.5915C125.786 11.4389 125.968 11.4971 126.191 11.7208C126.6 12.1309 127.204 12.292 126.988 11.9331C126.923 11.8265 127.033 11.5891 127.23 11.4058C127.531 11.127 127.59 11.1803 127.59 11.729C127.59 12.3905 127.939 12.6062 128.234 12.127C128.321 11.9848 128.531 11.8777 128.7 11.8888C128.921 11.9036 128.917 11.9457 128.685 12.0396C128.092 12.2798 128.354 12.6442 129.12 12.6442C129.537 12.6442 129.951 12.7624 130.04 12.9069C130.129 13.0515 130.315 13.0999 130.453 13.014C130.591 12.9284 130.861 12.9894 131.054 13.1498C131.246 13.3101 132.049 13.4676 132.838 13.4997C133.626 13.5317 134.414 13.7014 134.589 13.8767C134.764 14.0523 135.092 14.1958 135.319 14.1958C135.546 14.1958 135.878 14.3414 136.057 14.519C136.319 14.7782 136.45 14.7523 136.717 14.3897C137.066 13.9155 137.527 13.7482 137.251 14.1958C137.164 14.338 137.215 14.4689 137.365 14.4867C138.2 14.5858 139.452 15.2623 139.289 15.5265C139.165 15.7288 139.335 15.7776 140.472 15.8658C140.685 15.8824 141.003 15.9858 141.18 16.0955C141.357 16.2054 141.502 16.226 141.502 16.1415C141.502 16.0569 141.763 16.1368 142.082 16.3189C142.401 16.5009 142.835 16.6561 143.048 16.6633C143.261 16.6706 143.415 16.789 143.39 16.9266C143.366 17.0642 143.627 17.3096 143.97 17.472C144.489 17.7179 144.594 17.6998 144.594 17.3639C144.594 17.007 144.648 17.0099 145.065 17.3882C145.324 17.6235 145.672 17.8162 145.838 17.8162C146.004 17.8162 146.14 17.9222 146.14 18.0517C146.14 18.4068 148.267 19.3677 149.053 19.3677C149.463 19.3677 149.873 19.5769 150.064 19.8849C150.241 20.1694 150.597 20.4021 150.854 20.4021C151.112 20.4021 151.251 20.2858 151.164 20.1435C151.076 20.0013 151.104 19.8849 151.226 19.8849C151.602 19.8849 152.065 20.482 152.065 20.9661C152.065 21.368 152.347 21.5265 153.611 21.8363C153.682 21.8536 154.066 22.0034 154.465 22.1694C154.864 22.3351 155.357 22.4709 155.56 22.4709C155.764 22.4709 155.93 22.6579 155.93 22.8865C155.93 23.1541 156.071 23.2477 156.326 23.1495C156.552 23.0626 156.786 23.1621 156.869 23.3804C156.95 23.5914 157.132 23.7639 157.274 23.7639C157.417 23.7639 158.229 24.4606 159.08 25.3121C159.931 26.1637 160.714 26.8063 160.821 26.7406C160.927 26.6747 161.225 26.8547 161.483 27.1409C161.741 27.4269 162.09 27.6079 162.258 27.543C162.427 27.4784 162.71 27.7359 162.888 28.1158C163.076 28.5179 163.26 28.6716 163.328 28.4833C163.543 27.8859 163.917 28.1531 163.917 28.9043C163.917 29.3134 164.084 29.7874 164.288 29.9576C164.492 30.1275 164.695 30.5756 164.739 30.9529C164.788 31.3775 165.064 31.7613 165.463 31.9594C166.437 32.444 167.781 33.8603 167.781 34.4026C167.781 34.9462 168.186 35.0519 168.384 34.5603C168.474 34.3354 168.52 34.3527 168.534 34.6172C168.545 34.8262 168.893 35.2916 169.307 35.6516C169.815 36.093 170.087 36.6004 170.144 37.211C170.205 37.8546 170.378 38.1564 170.744 38.2557C171.055 38.3397 171.29 38.655 171.337 39.0496C171.379 39.4093 171.988 40.3338 172.689 41.1039C173.391 41.8737 173.965 42.6511 173.965 42.8313C173.965 43.0113 174.055 43.1587 174.165 43.1587C174.275 43.1587 174.572 43.8569 174.825 44.7103C175.086 45.5934 175.43 46.2619 175.625 46.2619C175.812 46.2619 176.036 46.5238 176.121 46.8437C176.356 47.724 176.33 47.7749 175.704 47.6423C175.193 47.5339 175.178 47.5538 175.575 47.8085C175.823 47.9676 176.026 48.2432 176.026 48.4211C176.026 49.0436 176.674 50.1152 177.121 50.2326C177.475 50.3257 177.572 50.6306 177.572 51.6559C177.572 52.3738 177.71 53.2657 177.879 53.6383C178.13 54.1902 178.118 54.3606 177.815 54.5605C177.499 54.7687 177.511 54.8582 177.901 55.1579C178.314 55.4752 178.318 55.5261 177.943 55.6707C177.585 55.8085 177.62 55.9422 178.193 56.6262C178.56 57.0635 178.868 57.5576 178.878 57.7247C178.887 57.8915 178.96 58.3771 179.038 58.8038C179.288 60.1617 179.164 61.6215 178.774 61.9075C178.449 62.1457 178.448 62.2745 178.767 62.885C178.969 63.2716 179.248 63.5879 179.388 63.5879C179.528 63.5879 179.579 63.8496 179.502 64.1697C179.425 64.4899 179.322 65.2504 179.273 65.8602C179.224 66.4699 179.111 67.0425 179.021 67.1325C178.932 67.2225 179.042 67.5783 179.267 67.9233C179.651 68.5108 179.641 68.5881 179.112 69.1532C178.802 69.4847 178.619 69.871 178.706 70.0117C178.792 70.1521 178.719 70.3155 178.542 70.3745C178.287 70.4601 178.287 70.6248 178.542 71.1873C178.772 71.6939 178.786 72.0352 178.592 72.3988C178.386 72.7851 178.41 72.9388 178.691 73.0471C178.909 73.1309 179.007 73.3957 178.93 73.69C178.768 74.314 178.345 74.3484 178.343 73.7378C178.342 73.4381 178.209 73.5405 177.949 74.0409C177.66 74.5979 177.635 74.8454 177.855 74.9819C178.019 75.0836 178.079 75.2868 177.989 75.4337C177.898 75.5803 177.999 75.8756 178.213 76.0898C178.611 76.4901 178.493 77.2586 177.977 77.6129C177.783 77.7463 177.786 77.804 177.987 77.8068C178.153 77.8092 178.221 78.0825 178.15 78.4572C178.073 78.8609 177.853 79.1037 177.564 79.1037C177.22 79.1037 177.121 79.2744 177.175 79.7712C177.217 80.1549 177.098 80.4963 176.894 80.5746C176.695 80.6514 176.541 81.0784 176.541 81.5557C176.541 82.7551 176.256 84.0308 176.021 83.8852C175.912 83.8172 175.756 83.9354 175.674 84.1479C175.593 84.3605 175.643 84.5343 175.786 84.5343C175.951 84.5343 175.942 84.7254 175.762 85.0639C175.566 85.4306 175.325 85.5446 174.98 85.4344C174.411 85.2532 174.325 85.5591 174.802 86.0664C175.06 86.3406 175.06 86.4329 174.802 86.5275C174.625 86.5927 174.48 86.7851 174.48 86.955C174.48 87.1249 174.239 87.4709 173.945 87.7241C173.5 88.1057 173.439 88.3602 173.583 89.2164C173.727 90.0721 173.665 90.3286 173.221 90.715C172.927 90.9713 172.761 91.2565 172.853 91.3488C172.945 91.4409 172.841 91.5164 172.623 91.5164C172.387 91.5164 172.163 91.8332 172.071 92.295C171.977 92.7626 171.676 93.1833 171.316 93.3478C170.655 93.6503 169.973 94.5777 170.225 94.8311C170.313 94.9198 170.494 94.8213 170.625 94.6121C170.788 94.3545 170.866 94.3359 170.869 94.5549C170.871 94.7328 170.641 95.1109 170.358 95.3953C170.074 95.6798 169.843 96.0289 169.843 96.1711C169.843 96.3134 169.71 96.4297 169.549 96.4297C169.044 96.4297 168.563 97.2922 168.865 97.6573C169.055 97.8869 169.04 97.9813 168.816 97.9813C168.64 97.9813 168.565 98.1541 168.648 98.3692C168.729 98.5826 168.683 98.7571 168.546 98.7571C168.409 98.7571 168.297 98.9182 168.297 99.1147C168.297 99.3115 168.065 99.5334 167.781 99.6079C167.473 99.6888 167.266 99.9606 167.266 100.284C167.266 100.582 167.143 100.826 166.993 100.826C166.843 100.826 166.787 100.934 166.869 101.067C166.95 101.199 166.886 101.389 166.726 101.488C166.566 101.587 166.353 101.533 166.251 101.368C166.141 101.189 165.927 101.491 165.723 102.11C165.513 102.748 165.221 103.153 164.97 103.153C164.744 103.153 164.231 103.502 163.83 103.929C163.429 104.356 162.994 104.705 162.864 104.705C162.735 104.705 162.629 104.923 162.629 105.19C162.629 105.457 162.455 105.821 162.242 105.998C162.03 106.175 161.856 106.48 161.856 106.676C161.856 106.872 161.694 107.032 161.497 107.032C161.3 107.032 161.066 107.324 160.976 107.681C160.818 108.313 158.979 109.877 158.394 109.877C158.018 109.877 154.264 113.539 154.041 114.123C153.948 114.366 153.765 114.497 153.633 114.416C153.501 114.334 153.137 114.628 152.824 115.07C152.39 115.681 152.201 115.79 152.032 115.525C151.863 115.26 151.654 115.377 151.147 116.018C150.781 116.481 150.325 116.859 150.133 116.859C149.941 116.859 149.556 117.15 149.277 117.505C148.999 117.861 148.657 118.152 148.517 118.152C148.378 118.152 148.121 118.325 147.947 118.536C147.772 118.747 147.12 119.175 146.498 119.487C145.876 119.799 145.367 120.15 145.367 120.266C145.367 120.384 145.199 120.479 144.993 120.479C144.788 120.479 144.527 120.625 144.413 120.803C144.3 120.98 143.535 121.58 142.714 122.135C141.892 122.691 141.108 123.355 140.971 123.611C140.835 123.868 140.336 124.15 139.863 124.239C139.39 124.328 138.67 124.711 138.263 125.091C137.856 125.47 137.341 125.792 137.12 125.807C136.898 125.822 136.23 126.142 135.636 126.518C135.042 126.895 134.447 127.203 134.314 127.203C133.965 127.203 132.488 128.076 132.486 128.283C132.482 128.718 131.607 129.272 130.925 129.272C130.512 129.272 129.608 129.621 128.918 130.047C128.227 130.474 127.455 130.823 127.203 130.823C126.951 130.823 126.172 131.177 125.471 131.61C124.771 132.042 123.831 132.468 123.382 132.554C122.933 132.642 122.289 132.986 121.951 133.32C121.343 133.919 121.014 134.023 119.971 133.942C119.677 133.92 118.866 134.182 118.167 134.526C117.469 134.869 116.26 135.364 115.481 135.625C114.701 135.887 113.881 136.252 113.657 136.436C113.433 136.62 112.965 136.771 112.616 136.771C111.693 136.771 109.076 137.489 107.863 138.075C107.287 138.353 106.389 138.581 105.866 138.581C105.195 138.581 104.917 138.694 104.917 138.969C104.917 139.266 104.59 139.357 103.516 139.357C102.744 139.357 102.042 139.473 101.955 139.615C101.867 139.758 101.579 139.874 101.313 139.874C101.049 139.874 100.646 140.06 100.419 140.288C100.162 140.547 99.7826 140.645 99.4088 140.551C99.0798 140.469 98.7291 140.482 98.6297 140.582C98.5302 140.682 98.0446 140.729 97.5507 140.686C96.6853 140.611 96.659 140.635 96.8223 141.34C96.9707 141.981 96.948 142.02 96.6391 141.656C96.2468 141.193 95.3847 140.82 95.3847 141.113C95.3847 141.216 95.1438 141.452 94.8493 141.637C94.4361 141.896 94.2302 141.903 93.9478 141.668C93.5202 141.311 92.1207 141.775 91.5928 142.448C91.3588 142.746 91.2766 142.761 91.2707 142.505C91.2609 142.095 89.4402 142.159 89.1369 142.58C89.0097 142.757 88.8664 142.728 88.7172 142.495C88.5596 142.25 88.4606 142.234 88.3916 142.442C88.3362 142.608 87.6457 142.773 86.83 142.814C86.0257 142.855 85.2159 143.014 85.0302 143.168C84.8447 143.322 83.1308 143.524 81.222 143.616C79.3134 143.709 77.6228 143.892 77.4653 144.023C77.3079 144.154 75.995 144.307 74.5478 144.363C73.1007 144.42 71.8455 144.537 71.7584 144.624C71.6715 144.712 71.459 144.665 71.2861 144.521C71.0968 144.363 70.7283 144.346 70.3607 144.477C70.0245 144.596 69.1119 144.672 68.3325 144.645C67.5532 144.618 66.7823 144.701 66.6197 144.83C66.4569 144.96 65.9932 144.997 65.5892 144.914C63.9977 144.586 63.5513 144.514 63.1797 144.528C62.9672 144.535 61.9817 144.555 60.9898 144.573C59.9953 144.59 59.1013 144.732 58.997 144.89C58.8643 145.09 58.8066 145.081 58.8037 144.86C58.8017 144.687 58.626 144.612 58.4134 144.694C58.2009 144.776 58.027 145.001 58.027 145.194C58.027 145.387 57.7974 145.668 57.5168 145.819C57.0513 146.069 57.0198 146.027 57.1574 145.337C57.2752 144.746 57.2035 144.548 56.8302 144.433C56.1779 144.23 55.0381 144.38 54.6277 144.722C54.3801 144.928 54.1562 144.905 53.7903 144.637C53.4933 144.419 52.6583 144.267 51.73 144.262C50.7654 144.257 49.9773 144.108 49.6671 143.873C49.3911 143.663 48.9622 143.557 48.7138 143.636C48.4657 143.715 47.9146 143.599 47.4895 143.379C47.0641 143.158 46.4084 142.977 46.032 142.977C45.491 142.977 45.381 143.072 45.5072 143.43C45.6262 143.767 45.5513 143.741 45.2127 143.326C44.8685 142.904 44.4622 142.766 43.5347 142.754C42.7515 142.743 42.3017 142.851 42.2852 143.051C42.271 143.224 42.179 143.074 42.0804 142.719C41.9819 142.363 41.7905 142.062 41.6552 142.05C41.52 142.038 41.2119 141.94 40.9707 141.833C40.7295 141.726 40.4106 141.714 40.2622 141.806C40.1138 141.898 39.9922 141.85 39.9922 141.7C39.9922 141.238 39.007 141.396 38.8815 141.878C38.7813 142.264 38.7594 142.268 38.7339 141.908C38.713 141.612 38.3557 141.432 37.5446 141.31C36.8021 141.198 36.3852 141.004 36.3852 140.771C36.3852 140.552 36.2296 140.467 35.9921 140.559C35.6891 140.676 35.6669 140.792 35.8949 141.068C36.0588 141.266 36.0797 141.426 35.9413 141.426C35.6069 141.426 34.8394 140.556 34.8394 140.177C34.8394 139.733 33.6342 139.808 32.8901 140.297C32.1646 140.774 31.7676 140.603 32.2491 140.02C32.5129 139.701 32.4534 139.608 31.8959 139.468C31.5274 139.375 31.1134 139.108 30.9763 138.875C30.7566 138.503 30.695 138.499 30.4647 138.84C30.2732 139.123 30.2459 139.001 30.3632 138.387C30.4884 137.733 30.4361 137.547 30.1266 137.547C29.9082 137.547 29.6902 137.429 29.6423 137.284C29.5941 137.139 29.2077 136.968 28.7833 136.903C27.2792 136.672 27.1285 136.608 26.4908 135.917C26.1366 135.533 25.6656 135.219 25.4443 135.219C24.8618 135.219 24.0123 134.679 23.2933 133.851C22.9486 133.454 22.5358 133.173 22.3763 133.227C22.2169 133.281 21.945 133.14 21.7724 132.915C21.4857 132.54 21.4579 132.54 21.4504 132.915C21.4349 133.682 20.0447 133.317 19.0036 132.272C18.4744 131.741 18.1054 131.242 18.1835 131.163C18.2618 131.084 18.1624 130.856 17.9627 130.656C17.7628 130.455 17.6335 130.149 17.6752 129.975C17.7167 129.801 17.702 129.747 17.6427 129.853C17.3962 130.296 17.0623 129.999 17.062 129.336C17.062 128.745 16.944 128.618 16.3615 128.584C15.9763 128.562 15.619 128.416 15.5672 128.261C15.5157 128.106 15.3549 127.979 15.2098 127.979C15.0648 127.979 15.0127 128.153 15.0944 128.366C15.1758 128.58 15.1439 128.754 15.023 128.754C14.5572 128.754 14.567 127.793 15.0359 127.5C15.7849 127.03 15.6589 126.339 14.8522 126.494C14.3761 126.586 14.0069 126.44 13.5483 125.98C13.1966 125.627 12.972 125.274 13.0493 125.197C13.1266 125.119 12.9885 124.908 12.7427 124.728C12.4971 124.548 12.2908 124.245 12.2843 124.056C12.2779 123.867 12.1398 123.738 11.9777 123.771C11.8159 123.804 11.6114 123.603 11.5235 123.325C11.4357 123.047 11.0881 122.602 10.7511 122.336C10.3314 122.005 10.113 121.534 10.0578 120.843C9.99882 120.103 9.73603 119.585 9.07544 118.905C8.24223 118.047 8.17293 117.853 8.16339 116.352C8.15412 114.922 8.07116 114.657 7.4706 114.138C6.81233 113.57 6.80718 113.544 7.32117 113.409C7.72644 113.303 7.80347 113.157 7.64296 112.802C7.52702 112.544 7.38558 111.664 7.32916 110.847C7.25496 109.775 7.12305 109.36 6.85613 109.36C6.65285 109.36 6.35837 109.039 6.20198 108.648C5.84077 107.745 5.73591 105.998 6.04302 105.998C6.17107 105.998 6.20121 105.736 6.10949 105.416C6.01777 105.096 5.88921 104.64 5.82377 104.403C5.75678 104.16 6.04714 103.58 6.48848 103.076C7.34745 102.094 7.43608 101.86 6.94991 101.86C6.7201 101.86 6.63147 101.31 6.64023 99.9379C6.6477 98.7956 6.55418 98.0765 6.40964 98.166C6.26511 98.2557 6.2347 98.0134 6.33467 97.5673C6.4269 97.1548 6.57479 96.4396 6.66342 95.9772C6.75179 95.5151 6.92956 95.1367 7.05838 95.1367C7.29515 95.1367 7.33148 94.6371 7.32813 91.4344C7.32658 90.0856 7.40542 89.7023 7.66409 89.8019C8.13351 89.9826 8.33627 89.3121 8.04488 88.5425C7.79548 87.8839 7.93693 87.1202 8.3087 87.1202C8.42335 87.1202 8.5666 87.2656 8.62689 87.4435C8.68692 87.6214 8.79255 87.3887 8.86134 86.9263C8.92987 86.4639 8.91931 86.0858 8.83764 86.0856C8.75596 86.0856 8.67455 85.7654 8.65729 85.3744C8.63977 84.9834 8.68073 84.8161 8.74824 85.0026C8.8433 85.2648 8.98217 85.241 9.35987 84.8978C9.99676 84.3194 9.98362 83.7585 9.33308 83.7585C9.03628 83.7585 8.8178 83.931 8.8178 84.1647C8.8178 84.526 8.77477 84.5281 8.43134 84.1833C7.94208 83.6923 7.94208 83.4999 8.43134 83.4999C8.64389 83.4999 8.8178 83.3701 8.8178 83.211C8.8178 83.0522 9.02958 82.978 9.28825 83.0458C9.91251 83.2097 10.9642 81.6775 10.9351 80.6468C10.9214 80.1601 11.042 79.8795 11.2651 79.8795C11.6217 79.8795 11.9886 79.1102 11.8541 78.6452C11.8136 78.5058 12.1166 78.0101 12.527 77.5439C13.201 76.7776 13.2322 76.6654 12.8491 76.3843C12.2519 75.946 12.3147 75.8074 13.1977 75.6127C13.9739 75.4415 14.2782 74.6703 13.7088 74.3171C13.5648 74.2276 13.5215 74.0334 13.613 73.885C13.7042 73.7368 13.6529 73.5372 13.4986 73.4415C13.32 73.3305 13.4015 73.1526 13.7233 72.9509C14.1409 72.689 14.2282 72.7019 14.2282 73.0246C14.2282 73.6972 14.7752 73.4497 15.08 72.6388C15.2629 72.1524 15.554 71.863 15.8606 71.863C16.2236 71.863 16.3146 71.729 16.2139 71.3424C16.1227 70.9926 16.2476 70.7309 16.5944 70.5444C16.9198 70.3699 17.0648 70.0911 16.9868 69.7914C16.9126 69.5067 16.9806 69.3577 17.1558 69.4205C17.5969 69.5783 18.3809 67.6422 18.4332 66.2657C18.4649 65.435 18.6011 65.019 18.8657 64.9468C19.1999 64.8558 19.2014 64.877 18.8776 65.103C18.5525 65.3301 18.5514 65.4549 18.8696 66.0521L19.2362 66.7397L19.8306 66.0042C20.1575 65.5998 20.3724 65.0559 20.3083 64.7958C20.2297 64.4772 20.3047 64.3665 20.5389 64.4565C21.0016 64.6349 22.2151 63.4821 22.2151 62.8641C22.2151 62.305 23.032 61.2605 23.469 61.2605C23.6295 61.2605 23.7609 61.1441 23.7609 61.0019C23.7609 60.8597 23.9217 60.7433 24.118 60.7433C24.6206 60.7433 25.3714 59.0417 25.1764 58.3446C25.064 57.9435 25.0885 57.8755 25.257 58.1193C25.5445 58.5354 26.4406 58.1581 26.6854 57.5181C26.7683 57.3009 27.0208 57.1229 27.2462 57.1229C27.4714 57.1229 27.585 57.0079 27.4985 56.8672C27.4083 56.7208 27.5116 56.6774 27.7409 56.7656C28.0666 56.8912 28.1408 56.6988 28.1408 55.7283C28.1408 54.4441 27.7597 54.1806 27.0017 54.9414C26.7802 55.1638 26.4821 55.2732 26.3393 55.1848C25.839 54.8744 26.0879 54.5931 27.0164 54.418C27.5317 54.321 28.2861 53.9947 28.6929 53.6929C29.2659 53.2678 29.5019 53.2137 29.7399 53.4527C29.9089 53.6223 30.1689 53.7594 30.3178 53.7573C30.4665 53.755 30.4394 53.6585 30.2575 53.5427C29.9128 53.3229 30.0903 52.4682 30.4806 52.4682C30.6038 52.4682 30.5904 52.1674 30.4513 51.8C30.188 51.1051 30.3044 50.658 30.7486 50.658C30.8908 50.658 30.9709 50.8856 30.9266 51.1636C30.8823 51.4416 30.9331 51.6743 31.0392 51.6808C31.6344 51.717 31.7477 51.6567 31.7477 51.3045C31.7477 51.0912 31.6125 50.9166 31.4471 50.9166C31.2819 50.9166 31.2332 50.8295 31.3394 50.7232C31.4455 50.6166 31.6856 50.74 31.8729 50.997C32.1128 51.3265 32.2684 51.3756 32.3993 51.1631C32.5376 50.9383 32.6376 50.9466 32.7909 51.1956C32.9341 51.4284 33.1006 51.4506 33.3384 51.2691C33.5262 51.1256 33.9559 50.9937 34.2932 50.9758C34.6304 50.9582 35.1766 50.6888 35.5072 50.3769C35.8377 50.0653 36.3734 49.6782 36.6977 49.5166C37.0219 49.3549 37.3241 48.9639 37.3694 48.6474C37.4145 48.3309 37.5662 48.072 37.7067 48.072C37.8468 48.072 37.8965 47.9665 37.8172 47.8375C37.7376 47.7087 37.9048 47.664 38.1884 47.7385C38.4719 47.8129 38.704 47.7672 38.704 47.6368C38.704 47.2236 38.1398 46.8142 37.768 46.9572C37.5217 47.0521 37.4596 46.965 37.5693 46.6785C37.6569 46.4493 37.8445 46.2619 37.9862 46.2619C38.1279 46.2619 38.1771 46.0873 38.0954 45.874C37.9957 45.6125 38.1078 45.4861 38.4391 45.4861C38.7099 45.4861 38.998 45.3775 39.0796 45.2448C39.2685 44.9384 40.8434 44.9663 41.0472 45.28C41.1315 45.4098 41.5084 45.4385 41.8845 45.3438C42.448 45.2019 42.5686 45.0242 42.5686 44.3374C42.5686 43.2722 42.8309 43.0084 43.1897 43.7131C43.461 44.2464 44.0835 44.3283 43.8898 43.8052C43.7151 43.3338 43.5906 42.5065 43.7419 42.821C43.8233 42.9906 44.0598 43.0643 44.2675 42.9844C44.5905 42.86 44.5851 42.7951 44.2306 42.535C43.9549 42.3327 43.8447 41.9381 43.9008 41.357C43.9931 40.407 44.6297 39.9216 44.6297 40.8016C44.6297 41.1799 44.7469 41.287 45.0386 41.1747C45.3838 41.0418 45.347 40.9164 44.801 40.3684C44.201 39.7662 44.1242 39.7501 43.7305 40.1455C43.4677 40.409 43.3688 40.7687 43.4706 41.0904C43.578 41.4302 43.5005 41.6614 43.2467 41.7592C43.0334 41.8411 42.9192 42.0669 42.9934 42.2606C43.2485 42.9278 42.0216 42.5489 41.3559 41.7548C40.7633 41.048 40.6803 41.0198 40.3861 41.4238C40.2091 41.6668 39.9322 41.8657 39.7706 41.8657C39.6091 41.8657 39.4769 42.033 39.4769 42.2373C39.4769 42.5213 39.7047 42.5732 40.4431 42.4574L41.4092 42.3058L40.7651 42.853C40.2351 43.3032 40.2009 43.4015 40.5719 43.4088C40.8754 43.4144 41.0227 43.6229 41.0227 44.0465C41.0227 44.5781 40.9029 44.6723 40.2498 44.6536C39.4759 44.6317 39.2048 44.3273 39.7858 44.1328C39.9793 44.0682 39.9309 43.9663 39.657 43.8608C39.3677 43.7493 39.2193 43.8207 39.2193 44.0718C39.2193 44.5696 38.544 44.5631 38.3531 44.0638C38.2717 43.8504 38.0784 43.6759 37.9239 43.6759C37.7695 43.6759 37.7268 43.8119 37.8293 43.9784C37.9545 44.182 37.8752 44.227 37.5869 44.1158C37.289 44.0012 37.1581 44.0871 37.1581 44.3976C37.1581 44.9047 36.234 45.5828 35.8594 45.3503C35.7159 45.2611 35.6123 45.6777 35.6123 46.3444C35.6123 46.9753 35.443 47.8985 35.2362 48.3955C35.029 48.8926 34.9247 49.3645 35.004 49.4439C35.0831 49.5235 34.9007 49.5238 34.5988 49.4444C34.0987 49.3131 34.0822 49.25 34.4161 48.7387C34.8067 48.1403 35.0996 45.4856 34.775 45.4858C34.4903 45.4861 33.5512 46.4786 33.5512 46.7791C33.5512 46.9213 33.2034 47.0377 32.7783 47.0377C32.2764 47.0377 32.0054 47.1685 32.0054 47.4108C32.0054 47.6161 31.6575 47.9903 31.2324 48.2425C30.7324 48.5388 30.4595 48.9094 30.4595 49.2916C30.4595 49.6443 30.3039 49.8822 30.0731 49.8822C29.6047 49.8822 29.5616 49.4656 30.0087 49.2598C30.1859 49.1781 30.0414 49.1853 29.6876 49.2758C28.7583 49.5135 27.9635 50.6526 28.7205 50.6619C28.9467 50.6647 28.9572 50.7224 28.7552 50.8558C28.597 50.9603 28.3809 51.3255 28.2745 51.6668C28.1168 52.1739 28.1578 52.2585 28.4976 52.1276C28.7264 52.0394 28.9137 52.0886 28.9137 52.2368C28.9137 52.3849 28.7109 52.4641 28.4628 52.4126C28.2147 52.3611 28.0279 52.1199 28.0478 51.8765C28.0735 51.5566 27.8857 51.4338 27.3707 51.4338C26.3564 51.4338 25.9186 52.0371 26.3089 52.8972C26.7129 53.7865 26.5743 53.8675 25.452 53.3968C24.4501 52.9766 24.5266 52.9342 24.1713 54.108C24.1133 54.2985 24.1765 54.6187 24.3115 54.8191C24.5119 55.1173 24.6302 55.078 24.963 54.6016C25.4956 53.8393 25.822 53.8638 25.822 54.6663C25.822 55.3011 25.6275 55.4183 24.727 55.3262C24.0994 55.2623 24.1641 55.7826 24.8559 56.3616C25.5827 56.9704 25.7545 56.9786 25.9021 56.4118C26.007 56.0089 26.0232 56.0068 26.0498 56.3934C26.0912 56.9949 25.3861 57.6401 24.6871 57.6401C23.908 57.6401 23.7331 57.4193 24.0755 56.8687C24.3094 56.493 24.2112 56.266 23.5239 55.5915C22.862 54.9422 22.7229 54.8817 22.8553 55.3006C23.0101 55.7907 22.7937 55.9626 22.1506 55.8605C22.0442 55.8437 21.9821 55.9171 22.012 56.0239C22.0422 56.1305 21.9183 56.4873 21.7366 56.8165C21.471 57.2972 21.3339 57.3546 21.0376 57.1079C20.7439 56.8633 20.6692 56.8861 20.6692 57.2207C20.6692 57.4514 20.5533 57.6401 20.4116 57.6401C20.2699 57.6401 20.1521 58.0182 20.1501 58.4806C20.147 59.1286 20.087 59.2323 19.8875 58.9331C19.6624 58.5949 19.5954 58.6032 19.3635 58.9978C19.2174 59.2465 18.9322 59.4503 18.73 59.4503C18.5277 59.4503 18.1693 59.7459 17.9333 60.1074C17.5899 60.6337 17.5618 60.8912 17.7932 61.4004C17.98 61.8118 17.9895 62.0363 17.8205 62.0363C17.6494 62.0363 17.6445 62.1959 17.8063 62.4992C18.0251 62.9093 17.9524 62.9504 17.1712 62.8589C16.27 62.7531 15.9245 62.298 16.7402 62.291C17.1249 62.2876 17.1341 62.2507 16.8046 62.0407C16.5761 61.8948 16.3849 61.8907 16.337 62.0301C16.2924 62.1596 16.0897 62.2018 15.8861 62.1234C15.6829 62.0451 15.5164 62.1097 15.5164 62.2672C15.5164 62.4247 15.2771 62.7937 14.9844 63.0875C14.583 63.4904 14.4931 63.8079 14.6183 64.3805C14.7195 64.8434 14.6791 65.1395 14.5145 65.1395C14.3658 65.1395 14.3112 64.9649 14.3926 64.7516C14.4743 64.5382 14.4127 64.3637 14.2558 64.3637C14.0989 64.3637 13.9706 64.6546 13.9706 65.0102C13.9706 65.4125 13.8245 65.6567 13.5841 65.6567C13.3716 65.6567 13.1977 65.8033 13.1977 65.9825C13.1977 66.1617 12.88 66.6523 12.4917 67.0725C12.1037 67.4927 11.8211 68.0443 11.8639 68.2982C11.9159 68.6062 11.7796 68.7598 11.454 68.7598C10.9598 68.7598 10.2748 69.7443 10.2227 70.5294C10.1477 71.6574 10.0854 71.863 9.81821 71.863C9.64843 71.863 9.59046 71.6246 9.67677 71.2811C9.81383 70.7345 9.80121 70.7283 9.46679 71.1769C9.27099 71.4397 9.17128 71.8131 9.24548 72.0065C9.32999 72.2281 9.13263 72.4208 8.71242 72.5268C8.03535 72.6972 7.92327 72.9781 8.02246 74.255C8.06111 74.7513 7.95625 74.9662 7.67491 74.9662C7.45334 74.9662 7.27196 75.1407 7.27196 75.3541C7.27196 75.5674 7.14829 75.742 6.99706 75.742C6.83732 75.742 6.79198 75.9636 6.88885 76.27C7.0102 76.6532 6.87365 76.9424 6.39109 77.3233C5.73025 77.8451 5.49116 78.5865 5.98376 78.5865C6.47096 78.5865 6.24063 79.021 5.5973 79.3152C5.24305 79.4774 4.95321 79.827 4.95321 80.0926C4.95321 80.3579 4.72185 80.7854 4.43896 81.0424C4.04631 81.3988 3.99272 81.5922 4.21275 81.8583C4.43664 82.129 4.39619 82.2069 4.03137 82.2069C3.67428 82.2069 3.63383 82.279 3.86184 82.5079C4.08985 82.7367 4.03962 82.9152 3.65187 83.2527C3.11289 83.722 3.20486 84.5343 3.79718 84.5343C4.29545 84.5343 3.6614 85.7678 3.08532 85.9191C2.46621 86.0814 2.46621 87.369 3.08532 87.4052C3.33317 87.4197 3.17549 87.5482 2.73441 87.691C2.00066 87.9283 1.93779 88.0367 1.99035 88.9715C2.03518 89.7701 1.96639 89.9614 1.67526 89.8492C1.36145 89.7282 1.32719 90.0507 1.45807 91.904C1.54489 93.137 1.51191 94.1024 1.38309 94.1024C0.999726 94.1024 0.78537 95.7245 1.13962 95.9443C1.37485 96.0902 1.33388 96.2733 0.978342 96.6676C0.58132 97.108 0.557874 97.2632 0.837156 97.6009C1.07676 97.8905 1.22413 97.9208 1.35578 97.7075C1.48873 97.4915 1.58817 97.4882 1.71571 97.6951C1.8891 97.9769 1.56164 98.0907 0.860343 97.9924C0.636454 97.9611 0.560193 98.0912 0.656035 98.3415C0.739768 98.5611 0.704987 98.8047 0.578485 98.8833C0.451984 98.9617 0.358204 99.2272 0.370313 99.4734C0.382164 99.7193 0.319042 100.348 0.229642 100.87C0.125298 101.48 0.198467 102.073 0.434207 102.529C0.648305 102.943 0.737964 103.555 0.649852 103.998C0.549372 104.502 0.619192 104.835 0.858024 104.99C1.16152 105.186 1.16255 105.258 0.864465 105.45C0.574105 105.638 0.586472 105.721 0.935058 105.917C1.20584 106.069 1.41736 106.654 1.52196 107.539C1.63841 108.526 1.60286 108.872 1.39829 108.745C1.24036 108.647 1.17647 108.396 1.25633 108.188C1.43205 107.728 0.565346 107.661 0.127358 108.1C-0.0895742 108.318 -0.0357272 108.633 0.33785 109.329C0.648048 109.907 0.784597 110.52 0.695196 110.935C0.601415 111.369 0.690558 111.721 0.948456 111.936C1.16719 112.118 1.34625 112.552 1.34625 112.9C1.34625 113.247 1.64975 113.931 2.02101 114.42C2.39201 114.908 2.56592 115.307 2.40747 115.307C2.24876 115.307 2.11917 115.494 2.11917 115.723C2.11917 115.979 2.2619 116.083 2.49249 115.995C2.75477 115.894 2.8184 115.975 2.70633 116.268C2.60018 116.546 2.64759 116.623 2.84829 116.498C3.21903 116.268 3.22006 116.321 2.8671 117.337C2.6226 118.04 2.67155 118.3 3.22985 119.255C3.58462 119.863 4.52321 121.09 5.3157 121.981C6.85304 123.71 6.97696 123.91 6.37022 123.676C6.14298 123.588 5.98531 123.672 5.98763 123.878C5.9933 124.377 6.29473 124.756 6.85046 124.962C7.20163 125.092 7.29669 125.319 7.20446 125.804C7.12433 126.225 7.20807 126.518 7.43273 126.604C7.62776 126.679 7.78724 126.922 7.78724 127.144C7.78724 127.366 7.855 127.48 7.93744 127.397C8.08069 127.253 9.07544 128.098 9.07544 128.364C9.07544 128.711 10.0197 129.53 10.4208 129.53C10.6728 129.53 10.8789 129.705 10.8789 129.918C10.8789 130.459 11.5882 130.405 11.732 129.853C11.8255 129.494 11.8559 129.514 11.8796 129.951C11.8961 130.254 11.7327 130.648 11.5168 130.828C11.0582 131.21 11.1865 131.406 11.9744 131.527C12.6432 131.629 13.0645 132.253 13.067 133.145C13.0683 133.576 13.2355 133.819 13.5777 133.886C13.8575 133.942 14.2308 134.177 14.4068 134.409C14.583 134.641 14.7309 134.699 14.7353 134.536C14.7399 134.373 14.9043 134.178 15.1009 134.103C15.3515 134.006 15.4193 134.114 15.3283 134.463C15.2289 134.845 15.333 134.961 15.7741 134.961C16.2471 134.961 16.3277 135.075 16.2278 135.599C16.1608 135.951 16.2064 136.176 16.3288 136.1C16.8057 135.804 17.5775 136.297 17.5775 136.897C17.5775 137.314 17.8646 137.682 18.495 138.074C19.0966 138.447 19.3617 138.776 19.2651 139.029C19.1623 139.297 19.2375 139.368 19.5127 139.262C19.7342 139.177 20.1405 139.343 20.4373 139.641C20.7341 139.939 21.1404 140.106 21.362 140.02C21.6488 139.91 21.7127 139.985 21.5949 140.292C21.4594 140.647 21.5625 140.69 22.2233 140.558C22.6579 140.47 22.9576 140.49 22.889 140.602C22.8205 140.713 22.8707 140.973 23.0011 141.179C23.1974 141.491 23.2384 141.478 23.2417 141.102C23.2479 140.395 23.9961 140.572 24.3339 141.361C24.7453 142.323 24.7896 142.364 25.0151 141.998C25.2817 141.565 26.3373 142.726 26.3373 143.453C26.3373 143.696 27.4797 144.27 27.9643 144.27C28.1374 144.27 28.4618 143.968 28.6849 143.599L29.0907 142.928L29.0665 144.051C29.044 145.102 29.0904 145.181 29.7783 145.26C30.2501 145.314 30.4533 145.245 30.3446 145.069C30.2408 144.9 30.3299 144.853 30.5749 144.947C30.795 145.032 30.9748 145.256 30.9748 145.444C30.9748 145.633 31.2067 145.861 31.4901 145.951C31.7735 146.041 32.0054 146.224 32.0054 146.356C32.0054 146.489 32.373 146.598 32.8223 146.598C33.2717 146.598 33.8586 146.797 34.1262 147.04C34.5228 147.4 34.6529 147.418 34.8275 147.134C35.097 146.696 36.3852 146.975 36.3852 147.472C36.3852 147.827 37.8783 147.855 38.4348 147.51C38.5829 147.418 38.704 147.524 38.704 147.746C38.704 148.225 39.1306 148.287 39.2824 147.83C39.3499 147.626 39.6317 147.773 40.0548 148.231C40.4212 148.628 41.0495 148.991 41.4515 149.039C41.8534 149.086 42.1821 149.152 42.1821 149.186C42.1821 149.219 42.7327 149.276 43.4059 149.312C44.0791 149.347 44.6297 149.296 44.6297 149.197C44.6297 149.098 45.1568 149.008 45.8012 148.998C46.8431 148.982 46.9214 149.019 46.5097 149.332C46.0928 149.649 46.1446 149.685 47.0299 149.693C47.5704 149.697 48.2372 149.821 48.5113 149.968C48.8836 150.169 49.0106 150.152 49.0134 149.904C49.0165 149.651 49.0711 149.657 49.2425 149.928C49.3661 150.124 49.5903 150.208 49.7407 150.115C49.8912 150.021 50.1401 150.181 50.2939 150.469C50.6453 151.128 51.081 151.134 51.771 150.489C52.3074 149.988 52.3146 149.988 52.9803 150.607C53.6391 151.22 53.9436 151.344 54.6447 151.283C54.9162 151.26 54.9296 151.169 54.7026 150.895C54.4731 150.617 54.5032 150.5 54.8369 150.371C55.0731 150.28 55.3274 150.267 55.4016 150.341C55.4758 150.416 55.4047 150.477 55.2439 150.477C55.0832 150.477 55.0136 150.639 55.0896 150.838C55.2589 151.281 56.4796 151.556 56.485 151.152C56.4873 150.98 56.5744 150.999 56.7019 151.201C56.8189 151.387 57.0201 151.518 57.1489 151.494C57.2775 151.47 57.4699 151.478 57.5761 151.513C57.6822 151.547 57.8564 151.6 57.9625 151.63C58.0687 151.66 58.3781 151.782 58.6499 151.901C58.9807 152.045 59.4045 151.967 59.9312 151.664C60.4006 151.393 60.7538 151.317 60.8061 151.475C60.8545 151.621 61.0607 151.676 61.2642 151.598C61.4675 151.52 61.6339 151.56 61.6339 151.688C61.6339 151.87 67.0235 151.972 67.8817 151.807C68.2717 151.732 68.06 151.282 67.5596 151.123C66.8606 150.9 66.9057 150.475 67.624 150.515C67.943 150.532 68.4356 150.45 68.719 150.332C69.1998 150.132 69.2057 150.147 68.8063 150.551C68.5709 150.789 68.4369 151.209 68.5083 151.483C68.6201 151.913 68.8849 151.984 70.4176 151.998C71.8761 152.012 72.1971 151.941 72.1971 151.606C72.1971 151.287 72.3548 151.237 72.9056 151.378C73.2952 151.478 74.3399 151.615 75.227 151.682C76.5963 151.785 76.9457 151.719 77.5395 151.251C77.9471 150.929 78.2777 150.814 78.3313 150.975C78.4709 151.395 80.4228 151.308 80.8672 150.862C81.0811 150.648 81.3915 150.557 81.5574 150.661C82.0518 150.971 82.5931 150.982 82.9453 150.688C83.1277 150.536 83.5954 150.476 83.9847 150.554C84.7174 150.7 85.5944 150.255 85.5944 149.737C85.5944 149.575 85.7817 149.442 86.011 149.442C86.3006 149.442 86.3864 149.6 86.2926 149.959C86.12 150.622 87.0114 150.674 87.7083 150.041C88.0378 149.741 88.5552 149.624 89.3611 149.666C90.0312 149.701 90.7083 149.583 90.9402 149.391C91.2614 149.125 91.3689 149.122 91.4547 149.378C91.5868 149.772 92.7122 149.807 92.9479 149.425C93.0415 149.273 93.2669 149.206 93.4488 149.276C93.6309 149.346 94.0097 149.242 94.2908 149.044C94.5718 148.846 94.8689 148.752 94.9508 148.834C95.0328 148.917 95.5117 148.728 96.0151 148.416C96.5186 148.104 96.9305 147.953 96.9305 148.081C96.9305 148.376 98.8716 148.232 99.5087 147.89C99.7725 147.748 100.257 147.631 100.585 147.63C100.913 147.629 101.508 147.458 101.907 147.249C102.305 147.04 103.208 146.793 103.913 146.699C104.789 146.582 105.313 146.357 105.571 145.988C105.795 145.668 105.948 145.591 105.948 145.798C105.948 146.215 107.732 146.013 108.008 145.565C108.101 145.414 108.574 145.242 109.059 145.183C110.67 144.987 111.484 144.732 111.81 144.319C112.061 144.002 112.202 143.979 112.441 144.22C112.921 144.701 113.711 144.585 113.86 144.012C113.945 143.687 114.211 143.494 114.578 143.494C114.898 143.494 115.551 143.335 116.029 143.14C116.507 142.945 117.05 142.841 117.236 142.908C117.422 142.976 117.748 142.815 117.961 142.552C118.238 142.208 118.385 142.164 118.481 142.395C118.671 142.854 118.859 142.804 119.707 142.072C120.119 141.716 120.67 141.426 120.931 141.426C121.192 141.426 121.406 141.251 121.406 141.038C121.406 140.75 121.708 140.65 122.576 140.65C123.607 140.65 125.806 139.862 127.65 138.831C127.896 138.694 128.255 138.581 128.448 138.581C128.641 138.581 129.012 138.344 129.273 138.055C129.534 137.765 129.899 137.587 130.085 137.659C130.271 137.73 130.424 137.631 130.424 137.438C130.424 137.241 130.824 137.012 131.339 136.915C131.842 136.82 132.316 136.582 132.391 136.385C132.466 136.189 132.692 136.091 132.893 136.168C133.093 136.246 133.258 136.18 133.258 136.023C133.258 135.865 133.461 135.727 133.709 135.716C133.978 135.704 134.03 135.643 133.837 135.565C133.66 135.493 133.515 135.27 133.515 135.069C133.515 134.612 134.716 134.574 134.873 135.025C134.956 135.262 135.122 135.228 135.495 134.896C135.775 134.647 136.19 134.444 136.419 134.444C136.647 134.444 136.906 134.327 136.993 134.185C137.081 134.043 137.448 133.926 137.809 133.926C138.287 133.926 138.425 133.821 138.317 133.538C138.207 133.25 138.356 133.151 138.902 133.151C139.306 133.151 139.78 132.976 139.956 132.763C140.133 132.549 140.508 132.375 140.791 132.375C141.162 132.375 141.27 132.243 141.181 131.9C141.08 131.512 141.382 131.314 142.86 130.801C144.145 130.356 144.983 129.861 145.776 129.078C146.388 128.473 147.054 127.979 147.255 127.979C147.457 127.979 147.767 127.804 147.943 127.591C148.12 127.377 148.4 127.203 148.566 127.203C148.733 127.203 149.154 126.859 149.501 126.438C149.849 126.017 150.382 125.668 150.685 125.662C150.989 125.656 151.61 125.302 152.065 124.875C152.52 124.449 152.946 124.1 153.011 124.1C153.35 124.1 154.899 122.695 154.899 122.388C154.899 122.192 155.068 122.031 155.273 122.031C155.479 122.031 155.739 121.873 155.853 121.68C155.966 121.487 156.523 121.112 157.089 120.845C158.187 120.33 159.391 119.086 159.434 118.424C159.449 118.203 159.478 117.755 159.499 117.429C159.533 116.9 159.631 116.853 160.405 116.999C161.16 117.141 161.386 117.046 162.144 116.269C162.623 115.777 163.276 115.294 163.595 115.195C163.913 115.095 164.174 114.867 164.174 114.687C164.174 114.507 164.63 113.992 165.187 113.543C165.744 113.094 166.273 112.493 166.364 112.206C166.454 111.921 166.671 111.687 166.845 111.687C167.02 111.687 167.309 111.28 167.489 110.782C167.668 110.284 167.918 109.877 168.044 109.877C168.297 109.877 169.55 108.683 169.612 108.384C169.727 107.822 169.94 107.553 170.382 107.413C170.652 107.327 170.873 107.083 170.873 106.873C170.873 106.414 172.472 104.705 172.901 104.705C173.092 104.705 173.143 104.472 173.042 104.066C172.865 103.358 173.307 102.751 174.112 102.596C174.486 102.524 174.615 102.271 174.635 101.57C174.669 100.402 174.964 99.8427 175.281 100.346C175.443 100.602 175.504 100.54 175.507 100.115C175.509 99.7946 175.627 99.5329 175.768 99.5329C175.91 99.5329 176.026 99.3842 176.026 99.2024C176.026 99.0206 176.255 98.6749 176.536 98.4339C176.816 98.1929 176.989 97.8461 176.919 97.6635C176.849 97.4807 177.054 97.2156 177.375 97.0744C177.85 96.8655 177.973 96.5771 178.039 95.5265C178.084 94.8163 178.301 94.0356 178.521 93.7915C178.778 93.5063 178.863 93.1161 178.759 92.7008C178.639 92.2203 178.725 91.986 179.092 91.7887C179.435 91.6043 179.542 91.3517 179.44 90.9622C179.34 90.5772 179.388 90.4592 179.592 90.5862C179.769 90.6961 179.89 90.6074 179.89 90.368C179.89 90.1463 180.003 89.9648 180.14 89.9648C180.277 89.9648 180.326 89.7993 180.249 89.5968C180.172 89.3946 180.349 88.9873 180.644 88.6917C180.987 88.3465 181.179 87.8213 181.179 87.2219C181.179 86.4662 181.258 86.3199 181.598 86.4507C181.949 86.5857 181.992 86.4799 181.858 85.8073C181.724 85.1363 181.786 84.9788 182.234 84.8614C182.666 84.7479 182.738 84.5883 182.605 84.0455C182.514 83.6742 182.439 83.1606 182.438 82.9041C182.437 82.6475 182.27 82.3734 182.065 82.2945C181.574 82.1055 181.589 81.6897 182.087 81.6897C182.651 81.6897 183.05 80.4991 182.683 79.9095C182.449 79.5335 182.511 79.2245 182.992 78.3665C183.322 77.7763 183.674 77.2935 183.774 77.2935C183.874 77.2935 184.003 76.8945 184.06 76.4065C184.119 75.8963 184.06 75.5832 183.921 75.6693C183.778 75.758 183.752 75.5144 183.858 75.0693C183.956 74.6569 184.06 73.7239 184.089 72.9956C184.129 71.975 184.225 71.7037 184.506 71.8113C184.752 71.9057 184.804 71.8439 184.666 71.6194C184.552 71.4348 184.588 71.2098 184.746 71.1115C184.952 70.9843 184.955 70.6569 184.758 69.9408C184.55 69.1868 184.561 68.8995 184.801 68.7503C185.243 68.4761 184.877 67.6347 184.397 67.8198C183.969 67.9845 183.866 67.5886 184.271 67.337C184.438 67.2338 184.442 67.0138 184.285 66.7177C184.05 66.277 184.117 64.6898 184.382 64.4237C184.452 64.3533 184.397 64.0831 184.258 63.8235C184.061 63.4544 184.122 63.2884 184.537 63.0658C184.928 62.8558 185.022 62.6344 184.893 62.2261C184.796 61.9212 184.689 61.3756 184.653 61.0135C184.618 60.6515 184.521 60.1809 184.438 59.9675C184.355 59.7542 184.301 59.4051 184.319 59.1917C184.387 58.3831 184.262 57.8737 184.03 58.0169C183.899 58.0989 183.723 58.0554 183.64 57.9207C183.557 57.786 183.607 57.6029 183.751 57.5134C184.169 57.2538 184.053 56.7935 183.612 56.9634C183.261 57.0984 183.233 56.8587 183.385 55.0516C183.513 53.5321 183.478 52.9854 183.253 52.9854C183.067 52.9854 183.01 52.7876 183.107 52.4803C183.195 52.2024 183.096 51.3979 182.887 50.6927C182.679 49.9872 182.576 49.3418 182.659 49.2582C182.742 49.1747 182.663 49.1064 182.482 49.1064C182.3 49.1064 182.218 48.9381 182.299 48.7268C182.477 48.2629 182.049 47.9373 181.862 48.3937C181.789 48.5724 181.793 48.3402 181.872 47.8781C181.982 47.2365 181.924 47.0377 181.626 47.0377C181.382 47.0377 181.171 46.6875 181.061 46.1008C180.841 44.9228 180.396 44.1941 179.893 44.1892C179.574 44.1858 179.568 44.1447 179.856 43.9611C180.143 43.7786 180.109 43.6001 179.672 42.9953C179.377 42.5875 179.013 41.6937 178.864 41.0095C178.715 40.3252 178.363 39.5179 178.082 39.2151C177.802 38.9125 177.572 38.4579 177.572 38.2047C177.572 37.9017 177.44 37.7954 177.185 37.8931C176.893 38.0056 176.799 37.8474 176.799 37.2466C176.799 36.6095 176.713 36.4843 176.368 36.6175C176.041 36.7434 175.976 36.6788 176.102 36.3509C176.193 36.1127 176.155 35.918 176.018 35.918C175.881 35.918 175.768 35.7434 175.768 35.5301C175.768 35.3167 175.881 35.1422 176.018 35.1422C176.155 35.1422 176.201 34.9676 176.119 34.7543C176.037 34.5409 175.809 34.3664 175.612 34.3664C175.414 34.3664 175.253 34.1918 175.253 33.9785C175.253 33.7651 175.079 33.5906 174.866 33.5906C174.654 33.5906 174.48 33.416 174.48 33.2027C174.48 32.9894 174.277 32.6079 174.029 32.355C173.351 31.6635 172.161 29.7693 172.161 29.3809C172.161 28.8937 171.623 28.4186 171.071 28.4186C170.812 28.4186 170.532 28.2441 170.451 28.0308C170.369 27.8174 170.166 27.6429 170 27.6429C169.834 27.6429 169.543 27.1192 169.355 26.4792C169.135 25.7321 168.861 25.3085 168.59 25.2956C167.941 25.2653 167.233 25.1099 167.09 24.9661C167.019 24.895 166.81 24.3946 166.624 23.8541C166.365 23.0967 166.15 22.8699 165.686 22.865C165.22 22.8604 165.053 22.6824 164.948 22.083C164.846 21.4919 164.661 21.2907 164.172 21.2382C160.793 20.8741 160.825 20.8821 161.199 20.5069C161.398 20.307 161.682 20.1435 161.829 20.1435C161.977 20.1435 162.03 19.969 161.949 19.7556C161.852 19.5027 161.451 19.3677 160.798 19.3677C159.955 19.3677 159.795 19.2819 159.795 18.8332C159.795 18.4161 159.681 18.3346 159.279 18.4627C158.936 18.572 158.764 18.5092 158.764 18.2734C158.764 17.9377 157.067 17.1288 156.621 17.2522C156.506 17.2842 156.432 17.1042 156.458 16.8521C156.484 16.6 156.491 16.261 156.475 16.0986C156.444 15.7913 155.267 15.3649 154.706 15.458C154.529 15.4875 154.382 15.3026 154.38 15.0476C154.377 14.6527 154.339 14.6414 154.123 14.9716C153.897 15.3163 153.84 15.3163 153.606 14.9716C153.379 14.6354 153.293 14.6507 152.962 15.0856C152.509 15.6827 152.452 15.4306 152.884 14.7365C153.126 14.3463 153.104 14.1671 152.773 13.8348C152.546 13.6067 152.248 13.42 152.111 13.42C151.975 13.42 151.796 13.2455 151.714 13.0321C151.633 12.8188 151.295 12.6442 150.963 12.6442C150.632 12.6442 150.135 12.4733 149.86 12.2646C149.585 12.0556 149.067 11.8811 148.709 11.8767C148.351 11.872 147.854 11.6292 147.604 11.3367C147.257 10.9295 146.95 10.8371 146.292 10.9421C145.643 11.0456 145.32 10.9522 144.965 10.5589C144.605 10.1586 144.316 10.0784 143.713 10.2113C143.01 10.3665 142.965 10.3409 143.278 9.96256C143.584 9.5925 143.55 9.54104 142.999 9.54104C142.654 9.54104 142.138 9.3215 141.851 9.05333C141.45 8.67836 140.991 8.57725 139.862 8.61527C138.789 8.65147 138.426 8.57906 138.516 8.34607C138.583 8.17074 138.499 7.91369 138.331 7.77508C137.906 7.42546 135.806 6.85293 135.234 6.93051C134.975 6.96567 134.358 6.80198 133.864 6.56666C133.37 6.33134 132.655 6.08515 132.275 6.01973C131.136 5.82319 130.563 5.60881 130.364 5.30393C130.232 5.10093 129.935 5.15213 129.363 5.47615C128.916 5.72958 128.489 5.87491 128.414 5.7994C128.338 5.72389 128.412 5.66209 128.577 5.66209C128.743 5.66209 128.878 5.54572 128.878 5.40349C128.878 5.26126 128.584 5.14489 128.225 5.14489C127.867 5.14489 127.144 4.96491 126.619 4.74484C126.095 4.52478 125.374 4.30238 125.017 4.25014C124.661 4.19817 123.699 4.02232 122.879 3.85966C122.06 3.697 121.147 3.64115 120.85 3.73554C120.546 3.83251 120.233 3.78027 120.132 3.61555C120.033 3.45522 119.363 3.2817 118.642 3.23024C117.921 3.17852 117.18 3.04172 116.993 2.92638C116.807 2.81079 116.329 2.74123 115.931 2.77149C115.532 2.802 114.977 2.70373 114.697 2.55323C114.417 2.40272 113.232 2.23619 112.065 2.18343C110.897 2.13042 109.61 1.95871 109.205 1.80175C108.587 1.56177 102.549 1.19301 100.232 1.25352C99.8519 1.26335 99.4721 1.15991 99.3882 1.02363C99.3042 0.887345 98.5477 0.778993 97.7073 0.783131C96.8669 0.787268 95.9368 0.71331 95.6408 0.618922C95.3445 0.524534 94.9364 0.585562 94.7336 0.754426C94.4541 0.987422 94.1619 0.990785 93.5248 0.767874C92.9634 0.57134 92.6558 0.561513 92.597 0.738652C92.5404 0.908809 92.3489 0.917084 92.0606 0.762184C91.8141 0.629782 90.4609 0.507208 89.0542 0.489623C85.549 0.446437 85.6472 0.433249 85.6874 0.942685C85.7304 1.48703 84.8472 1.43014 84.4067 0.860193C84.2111 0.607285 83.5956 0.49014 82.4615 0.49014C81.5144 0.49014 80.6696 0.356962 80.4931 0.179823C80.2548 -0.0593793 80.184 -0.0598965 80.184 0.178013C80.184 0.368341 79.814 0.472814 79.2178 0.450833C78.6866 0.431438 77.8897 0.496347 77.4471 0.59539C76.837 0.731929 76.6046 0.676847 76.4866 0.368341C76.3588 0.0334571 76.2421 0.0169067 75.8301 0.275245C75.4542 0.510828 75.101 0.519103 74.4164 0.308088C73.6927 0.0851771 73.4423 0.10121 73.2076 0.38515ZM88.6861 3.46401C88.6861 3.67735 88.498 3.8519 88.2682 3.8519C87.9258 3.8519 87.908 3.78182 88.1708 3.46401C88.3473 3.25067 88.5353 3.07611 88.5887 3.07611C88.6423 3.07611 88.6861 3.25067 88.6861 3.46401ZM49.9585 5.45211C49.8763 5.65821 49.8152 5.59692 49.8028 5.29565C49.7918 5.02309 49.8526 4.87052 49.9381 4.95637C50.0236 5.04223 50.0329 5.2654 49.9585 5.45211ZM41.2386 5.46503C41.4144 5.6414 41.7462 5.78673 41.9765 5.78828C42.6057 5.79294 42.6734 6.36961 42.0675 6.56278C41.3417 6.79397 41.4038 7.10868 42.2599 7.53717C42.8587 7.83715 43.0362 7.84025 43.3005 7.55631C43.4907 7.35202 43.5113 7.21367 43.3515 7.21367C43.2044 7.21367 43.0839 7.08385 43.0839 6.92482C43.0839 6.76604 43.3057 6.69441 43.577 6.76552C43.9086 6.85267 44.1108 6.73863 44.1945 6.41745C44.3393 5.86069 43.7421 5.22066 43.478 5.64941C43.3863 5.79862 43.4407 5.92068 43.5991 5.92068C43.7576 5.92068 43.8156 6.03705 43.728 6.17928C43.4345 6.65562 43.0839 6.44434 43.0839 5.79138C43.0839 5.20437 42.9842 5.14489 42.0018 5.14489C41.1415 5.14489 40.9851 5.21057 41.2386 5.46503ZM48.4943 6.04998C48.4943 6.50098 48.358 6.69027 48.0434 6.67605C47.7742 6.66389 47.7221 6.60312 47.9146 6.52528C48.0919 6.45339 48.2367 6.17178 48.2367 5.89922C48.2367 5.6264 48.2946 5.40349 48.3655 5.40349C48.4363 5.40349 48.4943 5.69441 48.4943 6.04998ZM152.581 14.4391C152.581 14.5731 152.465 14.7544 152.323 14.8423C152.181 14.9302 152.065 14.8206 152.065 14.5989C152.065 14.3773 152.181 14.1958 152.323 14.1958C152.465 14.1958 152.581 14.3052 152.581 14.4391ZM159.537 19.1244C159.537 19.4171 159.426 19.5881 159.291 19.504C159.155 19.42 159.11 19.1803 159.189 18.9716C159.394 18.4371 159.537 18.4999 159.537 19.1244ZM165.639 23.8125C165.556 24.0186 165.495 23.9573 165.483 23.6561C165.472 23.3835 165.533 23.2309 165.618 23.3168C165.704 23.4026 165.713 23.6258 165.639 23.8125ZM74.2776 28.7419C74.3672 29.4352 74.2467 29.9702 74.0006 29.9702C73.8589 29.9702 73.743 29.8081 73.743 29.61C73.743 29.4119 73.5786 29.1864 73.3779 29.1091C72.9363 28.9389 72.6114 29.6253 73.0489 29.8037C73.2774 29.897 73.2738 29.9345 73.0345 29.9498C72.8575 29.9609 72.7124 30.1448 72.7124 30.3581C72.7124 30.5715 72.5965 30.746 72.4548 30.746C72.3131 30.746 72.1971 30.5715 72.1971 30.3581C72.1971 30.1448 72.0268 29.9702 71.8187 29.9702C71.6004 29.9702 71.4989 29.8171 71.5788 29.6085C71.7847 29.0698 71.2655 28.8735 70.8193 29.3214C70.6054 29.536 70.1904 29.7116 69.8967 29.7116C69.5161 29.7116 69.3621 29.8787 69.3592 30.2935C69.3561 30.753 69.3049 30.7954 69.1155 30.4949C68.7917 29.9811 68.4727 30.3465 68.7368 30.9289C68.8525 31.1838 68.9568 31.5089 68.9687 31.6511C68.9805 31.7933 69.0859 32.0628 69.2026 32.2503C69.6151 32.912 69.1039 32.8838 68.4302 32.2076C67.7237 31.4985 67.0443 31.3046 67.0443 31.812C67.0443 32.0126 66.9248 32.0028 66.6579 31.7804C66.0818 31.3005 66.1898 30.8226 66.9155 30.6397C67.6014 30.467 67.8075 29.9702 67.1933 29.9702C66.9918 29.9702 66.4299 30.4357 65.9447 31.0046C65.4596 31.5735 64.9381 32.039 64.7859 32.039C64.6333 32.039 64.4324 32.3881 64.3391 32.8148C64.1977 33.4608 64.0436 33.5906 63.417 33.5906C63.003 33.5906 62.6645 33.7116 62.6645 33.8593C62.6645 34.0144 62.513 33.987 62.3066 33.7946C61.899 33.4153 62.2687 33.0364 62.8342 33.2544C63.0244 33.3273 63.1797 33.2586 63.1797 33.1011C63.1797 32.9436 63.0514 32.8148 62.8945 32.8148C62.7348 32.8148 62.6784 32.6157 62.7662 32.3623C62.8925 31.9984 62.8453 32.0111 62.5261 32.4256C62.1853 32.8683 62.0943 32.8867 61.8854 32.5549C61.6695 32.212 61.6378 32.2123 61.6074 32.5562C61.5883 32.7695 61.5808 33.0142 61.5906 33.0998C61.6004 33.1856 61.6375 33.7468 61.6728 34.3472L61.737 35.439L62.6511 35.2668C63.1537 35.1722 63.6231 35.0036 63.6945 34.8924C63.7656 34.7809 64.1799 34.6126 64.6151 34.5179C65.3197 34.3643 65.3983 34.2549 65.3344 33.5156C65.2947 33.0589 65.3248 32.8937 65.4014 33.1484C65.5235 33.5554 65.6363 33.5166 66.3412 32.8251C67.2296 31.9534 67.5596 31.8456 67.5596 32.4269C67.5596 32.6402 67.6879 32.8148 67.8448 32.8148C68.0017 32.8148 68.0667 32.9806 67.9894 33.183C67.8675 33.5014 67.9669 33.5014 68.7265 33.183C69.8315 32.7194 69.9691 32.722 69.7851 33.2027C69.7037 33.416 69.7493 33.5906 69.8864 33.5906C70.0237 33.5906 70.136 33.416 70.136 33.2027C70.136 32.9048 70.4653 32.8148 71.553 32.8148C72.3324 32.8148 72.9701 32.6984 72.9701 32.5562C72.9701 32.414 73.3179 32.2976 73.743 32.2976C74.2582 32.2976 74.5159 32.1683 74.5159 31.9097C74.5159 31.4616 74.9212 31.3925 75.1708 31.798C75.2643 31.95 75.4998 32.0131 75.6938 31.9384C75.8881 31.8637 76.224 31.9803 76.4407 32.1978C76.7847 32.543 76.8346 32.5443 76.8346 32.2084C76.8346 31.6845 77.3989 31.534 77.8111 31.9477C77.9966 32.1339 78.3828 32.451 78.6696 32.6527C78.9563 32.8544 79.2186 33.1768 79.2523 33.3695C79.4126 34.2847 79.737 34.8836 80.0724 34.8836C80.2754 34.8836 80.4416 35.0297 80.4416 35.2084C80.4416 35.3871 80.7863 35.6863 81.2078 35.8735C81.8738 36.1693 82.0755 36.1536 82.7537 35.7517C83.6301 35.2319 83.6889 35.0765 83.1721 34.6459C82.9734 34.4807 82.7354 34.0431 82.6431 33.6739C82.4231 32.7946 81.2508 31.2632 80.7974 31.2632C80.6019 31.2632 80.4416 31.1013 80.4416 30.9032C80.4416 30.7054 80.1649 30.4737 79.8269 30.3886C79.4889 30.3036 78.9383 29.9439 78.6031 29.5893C78.2682 29.2348 77.7621 28.9519 77.4787 28.9607C77.1953 28.9695 77.1085 29.0354 77.2855 29.107C77.7637 29.3007 77.6758 29.6335 77.1067 29.7827C76.7174 29.8849 76.5693 29.7473 76.442 29.1665C76.2952 28.4952 76.1741 28.4186 75.2571 28.4186C74.5893 28.4186 74.2503 28.5306 74.2776 28.7419ZM75.9329 30.2288C76.0205 30.3711 75.9762 30.4874 75.8345 30.4874C75.6928 30.4874 75.5052 30.3711 75.4176 30.2288C75.33 30.0866 75.3743 29.9702 75.516 29.9702C75.6577 29.9702 75.8453 30.0866 75.9329 30.2288ZM58.7378 33.1877C58.3495 33.3912 57.6539 33.5999 57.1919 33.6519L56.3523 33.746L57.254 34.1983C58.0813 34.6133 58.0952 34.6379 57.4225 34.4972C57.0054 34.4101 56.5288 34.4778 56.3167 34.6547C56.0344 34.8898 55.8715 34.8924 55.6458 34.6658C55.2262 34.2446 54.9237 34.2935 55.0997 34.7543C55.1813 34.9676 55.422 35.1422 55.6345 35.1422C55.8721 35.1422 55.9638 35.2916 55.8726 35.5301C55.7793 35.7742 55.8754 35.918 56.132 35.918C56.4383 35.918 56.5115 36.1106 56.4262 36.6938C56.2966 37.58 56.4126 37.6625 56.8823 37.0178C57.1131 36.7007 57.1314 36.4693 56.9436 36.242C56.74 35.9958 56.8446 35.918 57.379 35.918C57.859 35.918 58.0403 36.0274 57.9502 36.2627C57.7943 36.6707 58.5208 36.7421 58.9962 36.3656C59.2469 36.167 59.252 36.0237 59.0184 35.7413C58.7813 35.4548 58.8086 35.281 59.1441 34.9446C59.4167 34.6708 59.5728 34.6286 59.5728 34.8282C59.5728 35.001 59.8011 35.1422 60.0801 35.1422C60.4251 35.1422 60.5397 35.0181 60.439 34.7543C60.3563 34.5378 59.9732 34.3664 59.5728 34.3664C59.1724 34.3664 58.7893 34.1949 58.7066 33.9785C58.6188 33.7489 58.704 33.5906 58.9153 33.5906C59.1116 33.5906 59.3306 33.7362 59.4022 33.9138C59.4736 34.0918 59.5414 33.9169 59.5524 33.5259C59.5761 32.6948 59.6336 32.7186 58.7378 33.1877ZM60.0881 33.5906C59.8559 33.7411 59.824 33.8427 60.0085 33.8453C60.1772 33.8474 60.3869 33.7328 60.4745 33.5906C60.6721 33.2694 60.583 33.2694 60.0881 33.5906ZM53.459 34.7938C52.9324 35.0126 52.5665 35.3816 52.4619 35.7993C52.2607 36.6048 52.5604 36.9888 52.9064 36.3684C53.0445 36.1207 53.4126 35.9162 53.7244 35.9141C54.4893 35.9087 55.155 35.4631 54.7807 35.2068C54.6248 35.1003 54.4509 34.8859 54.3942 34.7305C54.3224 34.5337 54.0392 34.5528 53.459 34.7938ZM53.3894 37.2234C53.3894 37.3891 53.2155 37.4579 53.003 37.3759C52.7904 37.2942 52.6165 37.3436 52.6165 37.4858C52.6165 37.6281 52.7832 37.8086 52.9867 37.8869C53.1939 37.9668 53.2903 38.2042 53.2052 38.4261C53.0792 38.7558 53.1444 38.7739 53.5912 38.5339C53.8867 38.3752 54.3458 38.2453 54.6114 38.2453C54.8771 38.2453 55.3194 38.0739 55.5946 37.8644C56.0532 37.5148 55.9926 37.4921 54.8655 37.5898C54.1894 37.6482 53.6986 37.595 53.7746 37.4714C53.8509 37.3478 53.7952 37.1737 53.6512 37.0842C53.5072 36.995 53.3894 37.0576 53.3894 37.2234ZM47.2702 38.309C47.329 38.4861 47.5415 38.6428 47.7425 38.6573C48.899 38.7408 48.9866 38.7804 48.8439 39.1533C48.7329 39.4439 48.812 39.499 49.152 39.3679C49.4519 39.2523 49.5491 39.2898 49.4342 39.4765C49.3378 39.633 49.3914 39.8435 49.5532 39.9438C49.7341 40.056 49.5364 40.2578 49.042 40.4664C48.5992 40.6534 48.2367 40.9283 48.2367 41.0775C48.2367 41.4584 48.6494 41.4145 49.0737 40.9885C49.2711 40.7905 49.6431 40.5869 49.9005 40.536C50.1579 40.4851 50.4688 40.1709 50.5912 39.8375C50.7713 39.3483 50.7182 39.2066 50.3161 39.1008C50.0422 39.0289 49.8747 38.8223 49.9438 38.6418C50.0873 38.266 49.2894 37.9955 48.022 37.9904C47.4498 37.988 47.1989 38.0943 47.2702 38.309ZM51.7588 38.5226C51.198 39.1797 51.3121 39.4085 51.9624 38.9311C52.2195 38.7426 52.3839 38.4502 52.328 38.2813C52.2636 38.0873 52.0544 38.1758 51.7588 38.5226ZM45.6605 38.7623C45.3807 38.9361 45.3794 39.1166 45.6538 39.7814C45.8373 40.2257 46.048 40.5285 46.1222 40.454C46.1961 40.3795 46.411 40.447 46.5994 40.604C46.7877 40.7607 47.126 40.8184 47.3509 40.7318C47.7229 40.5885 47.7232 40.5376 47.354 40.167C47.1309 39.9433 46.9485 39.6219 46.9485 39.4527C46.9485 38.9971 46.0547 38.5179 45.6605 38.7623ZM42.313 41.0832C42.0226 41.2676 42.0015 41.4 42.2262 41.6255C42.5789 41.9795 43.0839 41.7312 43.0839 41.204C43.0839 40.7736 42.8569 40.7382 42.313 41.0832ZM45.5273 41.8843C45.3305 42.7837 45.6028 43.3056 45.8246 42.4543C45.913 42.1153 46.1083 41.9552 46.3299 42.0405C46.772 42.2109 46.8031 41.8233 46.3816 41.4002C45.9019 40.9187 45.7156 41.0242 45.5273 41.8843ZM36.8825 47.7488C36.8923 48.2109 36.7846 48.5892 36.6429 48.5892C36.5012 48.5892 36.3852 48.4729 36.3852 48.3306C36.3852 48.1884 36.1892 48.072 35.9496 48.072C35.5677 48.072 35.5757 48.0219 36.014 47.6679C36.3687 47.3813 36.4205 47.2246 36.192 47.1292C36.015 47.0552 35.87 46.8393 35.87 46.6498C35.87 46.1359 36.4875 46.0196 36.6892 46.4954C36.7856 46.7224 36.8724 47.2867 36.8825 47.7488ZM33.9377 47.8711C34.0848 47.9813 34.0018 48.0658 33.7444 48.0682C33.4937 48.0702 33.2936 47.8807 33.2936 47.641C33.2936 47.4041 33.3806 47.3154 33.4868 47.4442C33.5929 47.5727 33.796 47.7651 33.9377 47.8711ZM30.2019 51.9663C30.2019 52.1002 30.0859 52.2096 29.9442 52.2096C29.8025 52.2096 29.6866 52.0281 29.6866 51.8064C29.6866 51.5848 29.8025 51.4752 29.9442 51.5631C30.0859 51.651 30.2019 51.8323 30.2019 51.9663ZM31.9002 52.3389C31.538 52.8938 31.5326 52.9854 31.8616 52.9854C32.196 52.9854 32.7783 52.2569 32.7783 51.8388C32.7783 51.4708 32.2826 51.7532 31.9002 52.3389ZM28.5272 54.2784C28.4396 54.4206 28.5489 54.537 28.7697 54.537C28.9905 54.537 29.1713 54.4206 29.1713 54.2784C29.1713 54.1361 29.0623 54.0198 28.9289 54.0198C28.7954 54.0198 28.6148 54.1361 28.5272 54.2784ZM29.429 54.9249C29.0961 55.2804 28.8851 55.5714 28.9601 55.5714C29.0348 55.5714 29.4089 55.2804 29.7909 54.9249C30.1733 54.5693 30.3843 54.2784 30.2601 54.2784C30.1357 54.2784 29.7618 54.5693 29.429 54.9249ZM178.485 59.4325C178.403 59.5649 178.454 59.7462 178.598 59.8356C178.742 59.9248 178.86 59.8165 178.86 59.5949C178.86 59.1405 178.705 59.0738 178.485 59.4325ZM17.7654 63.4855C17.6798 63.5713 17.4575 63.5806 17.2717 63.5059C17.0661 63.4234 17.1272 63.3621 17.4273 63.3497C17.6989 63.3386 17.8509 63.3996 17.7654 63.4855ZM15.5682 66.253C15.2312 66.6318 15.2114 66.8141 15.4634 67.2191C15.8684 67.87 15.8697 67.8666 15.1977 67.9176C14.742 67.952 14.7015 67.9093 15.0045 67.7141C15.3229 67.5085 15.3286 67.4286 15.0375 67.24C14.7479 67.0528 14.744 66.8558 15.0143 66.1051C15.2675 65.4025 15.4144 65.2636 15.6625 65.4914C15.9171 65.7249 15.8975 65.8827 15.5682 66.253ZM14.7435 66.1739C14.7435 66.3161 14.6276 66.4324 14.4859 66.4324C14.3442 66.4324 14.2282 66.3161 14.2282 66.1739C14.2282 66.0316 14.3442 65.9153 14.4859 65.9153C14.6276 65.9153 14.7435 66.0316 14.7435 66.1739ZM9.33308 72.7528C9.33308 72.8157 9.21714 72.9388 9.07544 73.0267C8.93374 73.1146 8.8178 73.0631 8.8178 72.9126C8.8178 72.7621 8.93374 72.6388 9.07544 72.6388C9.21714 72.6388 9.33308 72.69 9.33308 72.7528ZM10.6728 77.3453C10.4324 77.5865 10.3636 77.5177 10.3636 77.0349C10.3636 76.5521 10.4324 76.4833 10.6728 76.7246C10.9132 76.9659 10.9132 77.104 10.6728 77.3453ZM5.98376 84.7685C5.98376 84.8976 5.75189 84.9421 5.46848 84.8679C5.18508 84.7934 4.95321 84.6879 4.95321 84.6333C4.95321 84.579 5.18508 84.5343 5.46848 84.5343C5.75189 84.5343 5.98376 84.6398 5.98376 84.7685ZM6.49904 86.1011C6.49904 86.3938 6.38826 86.5648 6.25274 86.4807C6.11722 86.3967 6.07162 86.157 6.15149 85.9483C6.3558 85.4137 6.49904 85.4766 6.49904 86.1011ZM159.536 110.32C159.255 110.759 159.248 110.758 159.389 110.308C159.47 110.048 159.546 109.699 159.557 109.532C159.572 109.314 159.613 109.317 159.704 109.544C159.774 109.716 159.698 110.065 159.536 110.32ZM150.543 120.806C150.274 121.517 149.747 121.985 149.747 121.513C149.747 121.21 150.595 119.962 150.72 120.081C150.759 120.118 150.68 120.445 150.543 120.806ZM136.28 127.1C136.194 127.186 135.972 127.196 135.786 127.121C135.58 127.038 135.641 126.977 135.942 126.965C136.213 126.954 136.365 127.015 136.28 127.1ZM131.97 132.088C131.97 132.215 131.796 132.386 131.583 132.468C131.348 132.559 131.197 132.469 131.197 132.237C131.197 132.028 131.37 131.858 131.583 131.858C131.796 131.858 131.97 131.962 131.97 132.088ZM134.98 132.941C134.897 133.147 134.836 133.085 134.824 132.784C134.813 132.512 134.874 132.359 134.959 132.445C135.045 132.531 135.054 132.754 134.98 132.941ZM18.2216 132.892C18.3092 133.034 18.258 133.151 18.108 133.151C17.9581 133.151 17.8352 133.034 17.8352 132.892C17.8352 132.75 17.8862 132.633 17.9488 132.633C18.0114 132.633 18.134 132.75 18.2216 132.892ZM132.624 134.719C132.889 135.149 132.651 135.208 132.282 134.805C132.099 134.606 132.063 134.444 132.202 134.444C132.341 134.444 132.531 134.568 132.624 134.719ZM15.13 135.737C15.2176 135.879 15.3402 135.995 15.4028 135.995C15.4654 135.995 15.5164 135.879 15.5164 135.737C15.5164 135.594 15.3935 135.478 15.2436 135.478C15.0936 135.478 15.0424 135.594 15.13 135.737ZM119.216 138.84C119.304 138.982 119.195 139.098 118.974 139.098C118.753 139.098 118.572 138.982 118.572 138.84C118.572 138.697 118.681 138.581 118.815 138.581C118.948 138.581 119.129 138.697 119.216 138.84ZM120.247 141.167C120.335 141.309 120.219 141.426 119.989 141.426C119.76 141.426 119.644 141.309 119.732 141.167C119.819 141.025 119.935 140.908 119.989 140.908C120.043 140.908 120.159 141.025 120.247 141.167ZM110.619 143.324C110.462 143.515 110.408 143.748 110.502 143.841C110.595 143.935 110.536 144.012 110.371 144.012C110.026 144.012 110.011 143.949 110.227 143.386C110.313 143.161 110.501 142.977 110.644 142.977C110.809 142.977 110.8 143.106 110.619 143.324ZM47.4637 144.012C47.4637 144.154 47.3478 144.27 47.2061 144.27C47.0644 144.27 46.9485 144.154 46.9485 144.012C46.9485 143.869 47.0644 143.753 47.2061 143.753C47.3478 143.753 47.4637 143.869 47.4637 144.012ZM89.7166 145.563C89.7166 145.705 89.6656 145.822 89.603 145.822C89.5404 145.822 89.4178 145.705 89.3302 145.563C89.2426 145.421 89.2938 145.305 89.4438 145.305C89.5937 145.305 89.7166 145.421 89.7166 145.563ZM52.4877 145.822C52.5753 145.964 52.524 146.08 52.3741 146.08C52.2241 146.08 52.1012 145.964 52.1012 145.822C52.1012 145.68 52.1523 145.563 52.2149 145.563C52.2775 145.563 52.4001 145.68 52.4877 145.822ZM53.9691 145.993C53.7921 146.065 53.5023 146.065 53.325 145.993C53.148 145.921 53.2928 145.863 53.6471 145.863C54.0013 145.863 54.1464 145.921 53.9691 145.993ZM89.2013 146.699C89.2013 146.897 89.0406 147.121 88.844 147.197C88.5933 147.294 88.5256 147.186 88.6165 146.837C88.7657 146.264 89.2013 146.162 89.2013 146.699ZM57.7693 147.115C57.7693 147.257 57.6534 147.373 57.5117 147.373C57.37 147.373 57.254 147.257 57.254 147.115C57.254 146.973 57.37 146.856 57.5117 146.856C57.6534 146.856 57.7693 146.973 57.7693 147.115ZM87.3721 148.343C87.5682 148.722 87.5805 148.925 87.4069 148.925C87.2603 148.925 87.1402 148.75 87.1402 148.537C87.1402 148.324 87.0173 148.149 86.8674 148.149C86.7174 148.149 86.6711 148.025 86.7643 147.873C86.9594 147.557 86.9679 147.563 87.3721 148.343ZM88.1708 147.891C88.1708 148.033 88.0479 148.149 87.8979 148.149C87.748 148.149 87.6967 148.033 87.7843 147.891C87.8719 147.748 87.9946 147.632 88.0572 147.632C88.1198 147.632 88.1708 147.748 88.1708 147.891ZM45.4026 149.442C45.4026 149.584 45.5186 149.701 45.6603 149.701C45.802 149.701 45.9179 149.584 45.9179 149.442C45.9179 149.3 45.802 149.184 45.6603 149.184C45.5186 149.184 45.4026 149.3 45.4026 149.442ZM56.2235 149.815C56.2235 149.878 56.1075 150.001 55.9658 150.089C55.8241 150.177 55.7082 150.125 55.7082 149.975C55.7082 149.824 55.8241 149.701 55.9658 149.701C56.1075 149.701 56.2235 149.752 56.2235 149.815ZM51.3283 150.375C51.3283 150.431 51.1544 150.477 50.9419 150.477C50.7293 150.477 50.5554 150.364 50.5554 150.226C50.5554 150.088 50.7293 150.043 50.9419 150.124C51.1544 150.206 51.3283 150.319 51.3283 150.375Z" fill="white" style="mix-blend-mode:difference"/>
</svg>
