<?xml version="1.0" encoding="UTF-8" standalone="no"?>
<!DOCTYPE svg PUBLIC "-//W3C//DTD SVG 1.1//EN" "http://www.w3.org/Graphics/SVG/1.1/DTD/svg11.dtd">
<svg width="100%" height="100%" viewBox="0 0 145 145" version="1.1" xmlns="http://www.w3.org/2000/svg" xmlns:xlink="http://www.w3.org/1999/xlink" xml:space="preserve" xmlns:serif="http://www.serif.com/" style="fill-rule:evenodd;clip-rule:evenodd;stroke-linejoin:round;stroke-miterlimit:2;">
    <path d="M42,50.9L47.1,49.1L49.9,48L52.7,48L56.1,48.5L57.5,46.7L59.3,42C58.9,39.2 56.1,38 53.6,33.6L50.7,27.5C50.7,27.5 50.658,27.471 50.586,27.42C50.101,27.08 49.493,26.963 48.916,27.098C48.339,27.233 47.847,27.608 47.563,28.128C44.287,34.586 42.09,43.878 42,50.9Z" style="fill:url(#_Linear1);"/>
    <path d="M51,21.9L51,24.6L51.6,26.5L55.9,33.9L59.3,38.9L60.4,38.9L64,33.6L63.5,26.4C64.581,20.082 64.141,16.044 62.181,11.472C61.921,10.858 61.353,10.431 60.691,10.353C60.029,10.275 59.377,10.558 58.981,11.094C56.133,14.934 51,21.9 51,21.9Z" style="fill:url(#_Linear2);"/>
    <path d="M70.397,3.1C69.486,3.1 68.596,3.371 67.84,3.879C65.922,5.167 62.3,7.6 62.3,7.6L62.6,10.4C65.9,14.5 65.4,20.1 64.6,28.1L65.8,30.2L67.4,29.4L70.4,25.6C71.7,22.5 73.1,22.1 74.2,21.1L79.1,16.1L85.7,12C90.6,8.9 95,6.9 101.3,4.4C101.3,4.4 101.53,4.258 101.837,4.068C102.036,3.945 102.129,3.705 102.065,3.48C102.001,3.255 101.795,3.1 101.562,3.1C95.438,3.1 75.815,3.1 70.397,3.1Z" style="fill:url(#_Linear3);"/>
    <path d="M67.6,32.4L69.4,33.8L73.1,34.9L82.4,33.9L90,32.5L97,31.4C102.1,31.4 108.9,29.8 114,30L126.5,30.2L138.9,31.5L142.2,31.9C142.2,31.9 142.078,16.309 142.025,9.461C142.01,7.58 140.775,5.927 138.976,5.378C135.874,4.433 131.5,3.1 131.5,3.1L109.9,3.1L100.2,5.9L91.2,10.2L83.6,14.5L79.1,17.9L73.1,24.5L67.6,32.4Z" style="fill:url(#_Linear4);"/>
    <path d="M41.8,53.5L47.1,51.1L52.4,50L54.7,50.2L55.6,51.4L55.4,54L53.4,64.6L53.6,77.6C55,87 57,93.6 62.4,102.2C52.5,94.2 42.9,77.9 41.6,53.9L41.8,53.5Z" style="fill:rgb(251,218,98);fill-rule:nonzero;"/>
    <path d="M59.8,48L58.4,50.2L60,51.4L65.6,65L73.2,81.8L79.1,90.4L85.1,96.6L95.2,105.6L103.7,110C111.167,112.6 118.467,114.933 125.6,117C125.6,117 134.014,114.024 138.789,112.336C140.713,111.655 142,109.835 142,107.794C142,101.571 142,89 142,89L122.1,84.1L105.1,77.6L89.1,68.6L81.4,62.6L73.4,55.6L67,49.1L61.8,43.9L59.8,48Z" style="fill:url(#_Linear5);fill-rule:nonzero;"/>
    <path d="M66.4,34.5L62.2,40.5L62.6,42.9C64.5,43.8 66.8,46.5 68.5,48.5L73.5,53.6L84,62.4L93.2,68.9L109.5,77.6L126.1,84C126.1,84 134.4,85.66 139.044,86.589C139.795,86.739 140.574,86.545 141.167,86.06C141.76,85.575 142.104,84.849 142.106,84.083C142.127,72.696 142.2,34 142.2,34C137.6,33 133.5,31.5 127.2,31.4L107.4,31.5L98.5,33L86.4,34.5L72.6,35.5L66.4,34.5Z" style="fill:url(#_Linear6);fill-rule:nonzero;"/>
    <path d="M57.9,53.5L56.6,55L55.1,64L55,76.6L56.6,86.2L60.5,95.2L66.4,105.2C72.2,111.6 88.6,117.8 98.1,119.5C107.4,120.9 115.6,121.1 123.6,118.2L109.6,114.4L100,111.2L93.4,107.6L89,104.2L84,100.2L78.1,93.5L72.5,84.5L67,72.7L59.6,55L57.9,53.5Z" style="fill:rgb(252,222,103);fill-rule:nonzero;"/>
    <path d="M28.9,108.7L28.9,138.8L21.7,138.8L21.7,120.1L19.3,138.8L13.9,138.8L11,119.5L11,138.6L4.1,138.6L4.1,108.6L14.1,108.6C14.4,110.5 14.7,111.9 15.1,114.6L16.4,122.6L18.4,108.5L28.9,108.7ZM30.7,108.6L39,108.6C41.5,108.6 43.5,108.7 44.7,109.2C46,109.6 47.2,110.5 47.9,111.6C48.6,112.7 49,114.7 49,117.1C49,118.9 48.7,120 48.1,120.9C47.5,121.8 46.2,122.1 44.6,122.5C46.5,122.9 47.7,123.5 48.5,124.4C49.2,125.4 49.7,126.9 49.7,128.6L49.7,131.4C49.7,133.5 49.4,135.1 49,136.2C48.5,137.4 47.7,138.1 46.6,138.5C45.5,138.9 43.5,138.7 40.4,138.7L30.7,138.7L30.7,108.6ZM39,113.8L39,120.2L39.6,120.2C40.4,120.2 40.9,120 41.1,119.6C41.4,119.2 41.6,118.1 41.6,116.6C41.6,115.6 41.5,115.1 41.4,114.7C41.1,114.1 40.9,113.9 40.6,113.7C40.4,113.9 39.9,113.8 39,113.8ZM39,125.1L39,133.7C40.1,133.5 40.9,133.4 41.1,133.1C41.4,132.9 41.6,132 41.6,131L41.6,128C41.6,126.7 41.5,126 41.1,125.6C41,125.5 40.1,125.2 39,125.1ZM65.4,108.5L69.7,138.6L61.6,138.6L61.2,133.6L58.5,133.6L58.1,138.7L49.4,138.7L53.6,108.5L65.4,108.5ZM61.1,127.9C60.7,124.5 60.4,120.5 60,115.5C59.4,121 58.9,125 58.7,128C58.7,127.9 61.1,127.9 61.1,127.9Z" style="fill:white;fill-rule:nonzero;"/>
    <defs>
        <linearGradient id="_Linear1" x1="0" y1="0" x2="1" y2="0" gradientUnits="userSpaceOnUse" gradientTransform="matrix(-0.74,21.75,-21.75,-0.74,50.31,25.68)"><stop offset="0" style="stop-color:rgb(236,92,93);stop-opacity:1"/><stop offset="1" style="stop-color:rgb(218,53,53);stop-opacity:1"/></linearGradient>
        <linearGradient id="_Linear2" x1="0" y1="0" x2="1" y2="0" gradientUnits="userSpaceOnUse" gradientTransform="matrix(0.48,27.55,-27.55,0.48,57.42,10.37)"><stop offset="0" style="stop-color:rgb(102,113,171);stop-opacity:1"/><stop offset="1" style="stop-color:rgb(77,96,174);stop-opacity:1"/></linearGradient>
        <linearGradient id="_Linear3" x1="0" y1="0" x2="1" y2="0" gradientUnits="userSpaceOnUse" gradientTransform="matrix(0.7,27.786,-27.786,0.7,108.7,1.894)"><stop offset="0" style="stop-color:rgb(251,221,98);stop-opacity:1"/><stop offset="1" style="stop-color:rgb(250,219,94);stop-opacity:1"/></linearGradient>
        <linearGradient id="_Linear4" x1="0" y1="0" x2="1" y2="0" gradientUnits="userSpaceOnUse" gradientTransform="matrix(-0.8,30.17,-30.17,-0.8,110.3,1.9)"><stop offset="0" style="stop-color:rgb(250,215,93);stop-opacity:1"/><stop offset="1" style="stop-color:rgb(252,222,104);stop-opacity:1"/></linearGradient>
        <linearGradient id="_Linear5" x1="0" y1="0" x2="1" y2="0" gradientUnits="userSpaceOnUse" gradientTransform="matrix(0.22,68.7,-68.7,0.22,88.82,50)"><stop offset="0" style="stop-color:rgb(47,68,155);stop-opacity:1"/><stop offset="1" style="stop-color:rgb(52,62,134);stop-opacity:1"/></linearGradient>
        <linearGradient id="_Linear6" x1="0" y1="0" x2="1" y2="0" gradientUnits="userSpaceOnUse" gradientTransform="matrix(72.76,0,0,72.76,69.44,49.82)"><stop offset="0" style="stop-color:rgb(235,67,66);stop-opacity:1"/><stop offset="0.59" style="stop-color:rgb(232,57,54);stop-opacity:1"/><stop offset="1" style="stop-color:rgb(188,43,42);stop-opacity:1"/></linearGradient>
    </defs>
</svg>
